G75*
%MOIN*%
%OFA0B0*%
%FSLAX25Y25*%
%IPPOS*%
%LPD*%
%AMOC8*
5,1,8,0,0,1.08239X$1,22.5*
%
%ADD10R,0.15748X0.07874*%
%ADD11R,0.06706X0.05918*%
%ADD12R,0.05918X0.06706*%
%ADD13R,0.07099X0.06312*%
%ADD14R,0.06312X0.07099*%
%ADD15R,0.06312X0.08280*%
%ADD16R,0.08800X0.03400*%
%ADD17C,0.18900*%
%ADD18OC8,0.18900*%
%ADD19R,0.07887X0.07099*%
%ADD20R,0.09461X0.03162*%
%ADD21C,0.05200*%
%ADD22C,0.06737*%
%ADD23OC8,0.06400*%
%ADD24C,0.06706*%
D10*
X0066215Y0086869D03*
D11*
X0058617Y0076672D03*
X0058617Y0069192D03*
X0090388Y0090255D03*
X0090388Y0097735D03*
X0060782Y0134093D03*
X0060782Y0141573D03*
X0044955Y0173286D03*
X0044955Y0180766D03*
X0035507Y0180766D03*
X0035507Y0173286D03*
X0091018Y0173286D03*
X0091018Y0180766D03*
X0100467Y0180766D03*
X0100467Y0173286D03*
D12*
X0100664Y0159310D03*
X0093184Y0159310D03*
X0152239Y0166790D03*
X0159719Y0166790D03*
X0089601Y0054507D03*
X0082121Y0054507D03*
D13*
X0050428Y0134034D03*
X0038617Y0134034D03*
D14*
X0046570Y0087892D03*
X0046570Y0076081D03*
D15*
X0081136Y0080806D03*
X0090585Y0080806D03*
X0090585Y0063483D03*
X0081136Y0063483D03*
D16*
X0117895Y0167007D03*
X0117895Y0172007D03*
X0117895Y0177007D03*
X0117895Y0182007D03*
X0117895Y0187007D03*
X0117895Y0192007D03*
X0117895Y0197007D03*
X0117895Y0202007D03*
X0142095Y0202007D03*
X0142095Y0197007D03*
X0142095Y0192007D03*
X0142095Y0187007D03*
X0142095Y0182007D03*
X0142095Y0177007D03*
X0142095Y0172007D03*
X0142095Y0167007D03*
D17*
X0178341Y0151042D03*
D18*
X0138341Y0151042D03*
D19*
X0153617Y0188444D03*
X0153617Y0199467D03*
X0105585Y0195924D03*
X0105585Y0206948D03*
D20*
X0078223Y0184526D03*
X0078223Y0179526D03*
X0078223Y0174526D03*
X0078223Y0169526D03*
X0078223Y0164448D03*
X0078223Y0159448D03*
X0078223Y0154448D03*
X0078223Y0149448D03*
X0057751Y0149448D03*
X0057751Y0154448D03*
X0057751Y0159448D03*
X0057751Y0164448D03*
X0057751Y0169526D03*
X0057751Y0174526D03*
X0057751Y0179526D03*
X0057751Y0184526D03*
D21*
X0036058Y0159585D03*
X0026058Y0159585D03*
X0016058Y0159585D03*
X0095585Y0150924D03*
X0105585Y0150924D03*
X0115585Y0150924D03*
D22*
X0091688Y0136294D02*
X0091688Y0130357D01*
X0081688Y0130357D02*
X0081688Y0136294D01*
X0024302Y0067459D02*
X0018365Y0067459D01*
X0018365Y0057459D02*
X0024302Y0057459D01*
X0163814Y0088625D02*
X0163814Y0094562D01*
X0173814Y0094562D02*
X0173814Y0088625D01*
X0183814Y0088625D02*
X0183814Y0094562D01*
X0193814Y0094562D02*
X0193814Y0088625D01*
X0181451Y0211459D02*
X0181451Y0217396D01*
X0171451Y0217396D02*
X0171451Y0211459D01*
X0134207Y0218546D02*
X0134207Y0224483D01*
X0124207Y0224483D02*
X0124207Y0218546D01*
X0082987Y0218940D02*
X0082987Y0224877D01*
X0072987Y0224877D02*
X0072987Y0218940D01*
X0062987Y0218940D02*
X0062987Y0224877D01*
X0052987Y0224877D02*
X0052987Y0218940D01*
D23*
X0024522Y0025333D03*
X0034522Y0025333D03*
X0034522Y0035333D03*
X0024522Y0035333D03*
X0044522Y0035333D03*
X0044522Y0025333D03*
X0054522Y0025333D03*
X0054522Y0035333D03*
X0064522Y0035333D03*
X0064522Y0025333D03*
X0074522Y0025333D03*
X0074522Y0035333D03*
X0084522Y0035333D03*
X0084522Y0025333D03*
X0094522Y0025333D03*
X0094522Y0035333D03*
X0104522Y0035333D03*
X0104522Y0025333D03*
X0114522Y0025333D03*
X0114522Y0035333D03*
X0124522Y0035333D03*
X0124522Y0025333D03*
X0134522Y0025333D03*
X0134522Y0035333D03*
X0144522Y0035333D03*
X0144522Y0025333D03*
X0154522Y0025333D03*
X0154522Y0035333D03*
D24*
X0044955Y0123877D03*
M02*
