G75*
%MOIN*%
%OFA0B0*%
%FSLAX25Y25*%
%IPPOS*%
%LPD*%
%AMOC8*
5,1,8,0,0,1.08239X$1,22.5*
%
%ADD10C,0.00900*%
%ADD11R,0.05906X0.05118*%
%ADD12R,0.05512X0.06299*%
%ADD13R,0.05906X0.01969*%
%ADD14R,0.01969X0.05906*%
%ADD15C,0.18100*%
%ADD16OC8,0.18100*%
%ADD17R,0.05118X0.05906*%
%ADD18C,0.04400*%
%ADD19C,0.05937*%
%ADD20OC8,0.05600*%
%ADD21C,0.01181*%
%ADD22C,0.02781*%
%ADD23C,0.01575*%
%ADD24C,0.01969*%
%ADD25C,0.01600*%
%ADD26C,0.00787*%
%ADD27C,0.05906*%
D10*
X0185618Y0019809D02*
X0188187Y0022378D01*
X0193324Y0022378D01*
X0193324Y0025159D02*
X0193324Y0029012D01*
X0192040Y0030297D01*
X0186902Y0030297D01*
X0185618Y0029012D01*
X0185618Y0025159D01*
X0193324Y0025159D01*
X0189471Y0022378D02*
X0189471Y0017240D01*
X0188187Y0017240D02*
X0185618Y0019809D01*
X0188187Y0017240D02*
X0193324Y0017240D01*
X0204722Y0018524D02*
X0206006Y0017240D01*
X0208575Y0017240D01*
X0209860Y0018524D01*
X0209860Y0022378D01*
X0211144Y0022378D02*
X0204722Y0022378D01*
X0204722Y0018524D01*
X0206006Y0025159D02*
X0204722Y0026443D01*
X0204722Y0029012D01*
X0206006Y0030297D01*
X0208575Y0030297D01*
X0209860Y0029012D01*
X0209860Y0026443D01*
X0208575Y0025159D01*
X0206006Y0025159D01*
X0211144Y0022378D02*
X0212429Y0021093D01*
X0212429Y0019809D01*
X0209860Y0033078D02*
X0204722Y0033078D01*
X0204722Y0035646D02*
X0204722Y0036931D01*
X0204722Y0035646D02*
X0207291Y0033078D01*
X0206006Y0039677D02*
X0208575Y0039677D01*
X0209860Y0040961D01*
X0209860Y0043530D01*
X0208575Y0044814D01*
X0206006Y0044814D01*
X0204722Y0043530D01*
X0204722Y0040961D01*
X0206006Y0039677D01*
X0204722Y0047595D02*
X0204722Y0051449D01*
X0206006Y0052733D01*
X0209860Y0052733D01*
X0209860Y0055514D02*
X0209860Y0056798D01*
X0208575Y0056798D01*
X0208575Y0055514D01*
X0209860Y0055514D01*
X0208575Y0059473D02*
X0206006Y0059473D01*
X0204722Y0060758D01*
X0204722Y0064611D01*
X0202153Y0064611D02*
X0209860Y0064611D01*
X0209860Y0060758D01*
X0208575Y0059473D01*
X0208575Y0067392D02*
X0206006Y0067392D01*
X0204722Y0068677D01*
X0204722Y0071245D01*
X0206006Y0072530D01*
X0207291Y0072530D01*
X0207291Y0067392D01*
X0208575Y0067392D02*
X0209860Y0068677D01*
X0209860Y0071245D01*
X0209860Y0075311D02*
X0202153Y0075311D01*
X0204722Y0079164D02*
X0207291Y0075311D01*
X0209860Y0079164D01*
X0208575Y0081910D02*
X0207291Y0083194D01*
X0207291Y0087048D01*
X0206006Y0087048D02*
X0209860Y0087048D01*
X0209860Y0083194D01*
X0208575Y0081910D01*
X0204722Y0083194D02*
X0204722Y0085763D01*
X0206006Y0087048D01*
X0204722Y0089829D02*
X0209860Y0089829D01*
X0207291Y0089829D02*
X0204722Y0092398D01*
X0204722Y0093682D01*
X0203438Y0096428D02*
X0202153Y0097712D01*
X0202153Y0100281D01*
X0203438Y0101565D01*
X0206006Y0101565D01*
X0207291Y0100281D01*
X0204722Y0100281D01*
X0204722Y0097712D01*
X0207291Y0097712D01*
X0207291Y0100281D01*
X0208575Y0101565D02*
X0209860Y0100281D01*
X0209860Y0097712D01*
X0208575Y0096428D01*
X0203438Y0096428D01*
X0206006Y0104346D02*
X0208575Y0104346D01*
X0209860Y0105631D01*
X0209860Y0109484D01*
X0211144Y0109484D02*
X0204722Y0109484D01*
X0204722Y0105631D01*
X0206006Y0104346D01*
X0211144Y0109484D02*
X0212429Y0108200D01*
X0212429Y0106915D01*
X0209860Y0112265D02*
X0204722Y0112265D01*
X0204722Y0113550D01*
X0206006Y0114834D01*
X0204722Y0116118D01*
X0206006Y0117403D01*
X0209860Y0117403D01*
X0209860Y0120184D02*
X0209860Y0122753D01*
X0209860Y0121468D02*
X0204722Y0121468D01*
X0204722Y0120184D01*
X0202153Y0121468D02*
X0200869Y0121468D01*
X0204722Y0126748D02*
X0204722Y0129316D01*
X0206006Y0130601D01*
X0209860Y0130601D01*
X0209860Y0126748D01*
X0208575Y0125463D01*
X0207291Y0126748D01*
X0207291Y0130601D01*
X0209860Y0133382D02*
X0209860Y0135951D01*
X0209860Y0134666D02*
X0202153Y0134666D01*
X0202153Y0133382D01*
X0208575Y0138661D02*
X0208575Y0139945D01*
X0209860Y0139945D01*
X0209860Y0138661D01*
X0208575Y0138661D01*
X0208575Y0142620D02*
X0206006Y0142620D01*
X0204722Y0143905D01*
X0204722Y0147758D01*
X0206006Y0150539D02*
X0208575Y0150539D01*
X0209860Y0151824D01*
X0209860Y0154392D01*
X0208575Y0155677D01*
X0206006Y0155677D01*
X0204722Y0154392D01*
X0204722Y0151824D01*
X0206006Y0150539D01*
X0209860Y0147758D02*
X0209860Y0143905D01*
X0208575Y0142620D01*
X0209860Y0158458D02*
X0204722Y0158458D01*
X0204722Y0159742D01*
X0206006Y0161027D01*
X0204722Y0162311D01*
X0206006Y0163596D01*
X0209860Y0163596D01*
X0209860Y0161027D02*
X0206006Y0161027D01*
X0206503Y0179445D02*
X0203935Y0182014D01*
X0203935Y0183298D01*
X0203935Y0179445D02*
X0209072Y0179445D01*
X0207788Y0186044D02*
X0205219Y0186044D01*
X0203935Y0187328D01*
X0203935Y0189897D01*
X0205219Y0191181D01*
X0206503Y0191181D01*
X0206503Y0186044D01*
X0207788Y0186044D02*
X0209072Y0187328D01*
X0209072Y0189897D01*
X0203935Y0193962D02*
X0209072Y0196531D01*
X0203935Y0199100D01*
X0203935Y0209800D02*
X0201366Y0212369D01*
X0209072Y0212369D01*
X0209072Y0209800D02*
X0209072Y0214938D01*
X0209072Y0217719D02*
X0207788Y0217719D01*
X0207788Y0219003D01*
X0209072Y0219003D01*
X0209072Y0217719D01*
X0207788Y0221678D02*
X0202650Y0226816D01*
X0207788Y0226816D01*
X0209072Y0225531D01*
X0209072Y0222963D01*
X0207788Y0221678D01*
X0202650Y0221678D01*
X0201366Y0222963D01*
X0201366Y0225531D01*
X0202650Y0226816D01*
X0206006Y0114834D02*
X0209860Y0114834D01*
X0192040Y0077809D02*
X0186902Y0077809D01*
X0192040Y0072671D01*
X0193324Y0073956D01*
X0193324Y0076525D01*
X0192040Y0077809D01*
X0192040Y0072671D02*
X0186902Y0072671D01*
X0185618Y0073956D01*
X0185618Y0076525D01*
X0186902Y0077809D01*
X0186902Y0069890D02*
X0185618Y0068606D01*
X0185618Y0066037D01*
X0186902Y0064753D01*
X0192040Y0064753D01*
X0186902Y0069890D01*
X0192040Y0069890D01*
X0193324Y0068606D01*
X0193324Y0066037D01*
X0192040Y0064753D01*
X0193324Y0061972D02*
X0193324Y0056834D01*
X0188187Y0061972D01*
X0186902Y0061972D01*
X0185618Y0060687D01*
X0185618Y0058118D01*
X0186902Y0056834D01*
X0185618Y0051484D02*
X0193324Y0051484D01*
X0193324Y0048915D02*
X0193324Y0054053D01*
X0188187Y0048915D02*
X0185618Y0051484D01*
X0186902Y0046134D02*
X0185618Y0044850D01*
X0185618Y0042281D01*
X0186902Y0040996D01*
X0188187Y0040996D01*
X0189471Y0042281D01*
X0189471Y0044850D01*
X0190755Y0046134D01*
X0192040Y0046134D01*
X0193324Y0044850D01*
X0193324Y0042281D01*
X0192040Y0040996D01*
X0193324Y0038215D02*
X0193324Y0033078D01*
X0188187Y0038215D01*
X0186902Y0038215D01*
X0185618Y0036931D01*
X0185618Y0034362D01*
X0186902Y0033078D01*
X0204722Y0047595D02*
X0209860Y0047595D01*
D11*
X0153617Y0144546D03*
X0153617Y0152026D03*
X0128026Y0164625D03*
X0128026Y0172105D03*
X0085113Y0173680D03*
X0085113Y0180373D03*
X0085113Y0187853D03*
X0072121Y0187853D03*
X0072121Y0180373D03*
X0072121Y0173680D03*
X0072121Y0166199D03*
X0063853Y0166199D03*
X0063853Y0173680D03*
X0063853Y0180373D03*
X0063853Y0187853D03*
X0050861Y0187853D03*
X0050861Y0180373D03*
X0050861Y0173680D03*
X0050861Y0166199D03*
X0050172Y0140353D03*
X0050172Y0132873D03*
X0085113Y0166199D03*
X0019759Y0171318D03*
X0019759Y0178798D03*
D12*
X0039129Y0143286D03*
X0039129Y0131475D03*
D13*
X0045152Y0116003D03*
X0045152Y0112853D03*
X0045152Y0109703D03*
X0045152Y0106554D03*
X0045152Y0103404D03*
X0045152Y0100255D03*
X0045152Y0097105D03*
X0045152Y0093955D03*
X0045152Y0090806D03*
X0045152Y0087656D03*
X0045152Y0084507D03*
X0090822Y0084507D03*
X0090822Y0087656D03*
X0090822Y0090806D03*
X0090822Y0093955D03*
X0090822Y0097105D03*
X0090822Y0100255D03*
X0090822Y0103404D03*
X0090822Y0106554D03*
X0090822Y0109703D03*
X0090822Y0112853D03*
X0090822Y0116003D03*
D14*
X0083735Y0123089D03*
X0080585Y0123089D03*
X0077436Y0123089D03*
X0074286Y0123089D03*
X0071136Y0123089D03*
X0067987Y0123089D03*
X0064837Y0123089D03*
X0061688Y0123089D03*
X0058538Y0123089D03*
X0055388Y0123089D03*
X0052239Y0123089D03*
X0052239Y0077420D03*
X0055388Y0077420D03*
X0058538Y0077420D03*
X0061688Y0077420D03*
X0064837Y0077420D03*
X0067987Y0077420D03*
X0071136Y0077420D03*
X0074286Y0077420D03*
X0077436Y0077420D03*
X0080585Y0077420D03*
X0083735Y0077420D03*
D15*
X0178341Y0151042D03*
D16*
X0138341Y0151042D03*
D17*
X0114444Y0162459D03*
X0106963Y0162459D03*
X0082357Y0197105D03*
X0074877Y0197105D03*
X0061097Y0197105D03*
X0053617Y0197105D03*
X0125467Y0201829D03*
X0132948Y0201829D03*
X0033341Y0115609D03*
X0025861Y0115609D03*
D18*
X0026058Y0159585D03*
X0016058Y0159585D03*
X0036058Y0159585D03*
X0095585Y0150924D03*
X0105585Y0150924D03*
X0115585Y0150924D03*
D19*
X0091688Y0136294D02*
X0091688Y0130357D01*
X0081688Y0130357D02*
X0081688Y0136294D01*
X0024302Y0067459D02*
X0018365Y0067459D01*
X0018365Y0057459D02*
X0024302Y0057459D01*
X0163814Y0088625D02*
X0163814Y0094562D01*
X0173814Y0094562D02*
X0173814Y0088625D01*
X0183814Y0088625D02*
X0183814Y0094562D01*
X0193814Y0094562D02*
X0193814Y0088625D01*
X0181451Y0211459D02*
X0181451Y0217396D01*
X0171451Y0217396D02*
X0171451Y0211459D01*
X0134207Y0218546D02*
X0134207Y0224483D01*
X0124207Y0224483D02*
X0124207Y0218546D01*
X0082987Y0218940D02*
X0082987Y0224877D01*
X0072987Y0224877D02*
X0072987Y0218940D01*
X0062987Y0218940D02*
X0062987Y0224877D01*
X0052987Y0224877D02*
X0052987Y0218940D01*
D20*
X0054522Y0035333D03*
X0054522Y0025333D03*
X0044522Y0025333D03*
X0044522Y0035333D03*
X0034522Y0035333D03*
X0034522Y0025333D03*
X0024522Y0025333D03*
X0024522Y0035333D03*
X0064522Y0035333D03*
X0064522Y0025333D03*
X0074522Y0025333D03*
X0074522Y0035333D03*
X0084522Y0035333D03*
X0084522Y0025333D03*
X0094522Y0025333D03*
X0094522Y0035333D03*
X0104522Y0035333D03*
X0104522Y0025333D03*
X0114522Y0025333D03*
X0114522Y0035333D03*
X0124522Y0035333D03*
X0124522Y0025333D03*
X0134522Y0025333D03*
X0134522Y0035333D03*
X0144522Y0035333D03*
X0144522Y0025333D03*
X0154522Y0025333D03*
X0154522Y0035333D03*
D21*
X0131570Y0069546D02*
X0131570Y0091593D01*
X0113459Y0109703D01*
X0090822Y0109703D01*
X0090822Y0106554D02*
X0104798Y0106554D01*
X0103223Y0103404D02*
X0104010Y0102617D01*
X0108735Y0102617D01*
X0109522Y0103404D01*
X0114247Y0100255D02*
X0115034Y0099467D01*
X0114247Y0100255D02*
X0090822Y0100255D01*
X0090822Y0103404D02*
X0103223Y0103404D01*
X0111885Y0097105D02*
X0112672Y0096318D01*
X0119759Y0096318D01*
X0125270Y0092381D02*
X0112672Y0092381D01*
X0111097Y0093955D01*
X0090822Y0093955D01*
X0090822Y0090806D02*
X0109522Y0090806D01*
X0111885Y0088444D01*
X0127633Y0088444D01*
X0133932Y0093168D02*
X0114247Y0112853D01*
X0090822Y0112853D01*
X0090822Y0116003D02*
X0115034Y0116003D01*
X0136294Y0094743D01*
X0136294Y0072696D01*
X0133932Y0071121D02*
X0133932Y0093168D01*
X0111885Y0097105D02*
X0090822Y0097105D01*
X0090822Y0087656D02*
X0097711Y0087656D01*
X0099286Y0086081D01*
X0088262Y0074270D02*
X0087475Y0073483D01*
X0085113Y0073483D01*
X0083735Y0074861D01*
X0083735Y0077420D01*
X0080585Y0077420D02*
X0080585Y0073286D01*
X0081963Y0071908D01*
X0080585Y0123089D02*
X0080585Y0132223D01*
X0081688Y0133325D01*
X0075664Y0129782D02*
X0074286Y0128404D01*
X0074286Y0123089D01*
X0071136Y0123089D02*
X0071136Y0128798D01*
X0073302Y0130963D01*
X0073302Y0158719D01*
X0077436Y0162853D01*
X0077436Y0168759D01*
X0072514Y0173680D01*
X0072121Y0173680D01*
X0072121Y0180373D02*
X0074286Y0180373D01*
X0077436Y0183522D01*
X0077436Y0194546D01*
X0074877Y0197105D01*
X0077436Y0199664D01*
X0077436Y0217459D01*
X0072987Y0221908D01*
X0079798Y0218719D02*
X0079798Y0199664D01*
X0082357Y0197105D01*
X0079798Y0194546D01*
X0079798Y0183522D01*
X0082948Y0180373D01*
X0085113Y0180373D01*
X0085113Y0173680D02*
X0084719Y0173680D01*
X0079798Y0168759D01*
X0079798Y0161672D01*
X0075664Y0157538D01*
X0075664Y0129782D01*
X0083735Y0123089D02*
X0088262Y0123089D01*
X0091688Y0126514D01*
X0091688Y0133325D01*
X0095585Y0137223D01*
X0095585Y0150924D01*
X0085113Y0166199D02*
X0085310Y0166396D01*
X0091018Y0166396D01*
X0091018Y0187656D02*
X0090822Y0187853D01*
X0085113Y0187853D01*
X0072121Y0187853D02*
X0068577Y0187853D01*
X0063853Y0187853D01*
X0067987Y0188444D02*
X0067987Y0194743D01*
X0067986Y0188444D02*
X0067988Y0188398D01*
X0067993Y0188352D01*
X0068002Y0188306D01*
X0068015Y0188261D01*
X0068031Y0188218D01*
X0068050Y0188176D01*
X0068073Y0188135D01*
X0068099Y0188097D01*
X0068128Y0188060D01*
X0068159Y0188026D01*
X0068193Y0187995D01*
X0068230Y0187966D01*
X0068268Y0187940D01*
X0068309Y0187917D01*
X0068351Y0187898D01*
X0068394Y0187882D01*
X0068439Y0187869D01*
X0068485Y0187860D01*
X0068531Y0187855D01*
X0068577Y0187853D01*
X0063853Y0180373D02*
X0061688Y0180373D01*
X0058538Y0183522D01*
X0058538Y0194546D01*
X0061097Y0197105D01*
X0058538Y0199664D01*
X0058538Y0217459D01*
X0062987Y0221908D01*
X0056176Y0218719D02*
X0056176Y0199664D01*
X0053617Y0197105D01*
X0056176Y0194546D01*
X0056176Y0183522D01*
X0053026Y0180373D01*
X0050861Y0180373D01*
X0050861Y0173680D02*
X0051888Y0173680D01*
X0056176Y0169392D01*
X0056176Y0161672D01*
X0060310Y0157538D01*
X0060310Y0129782D01*
X0061688Y0128404D01*
X0061688Y0123089D01*
X0064837Y0123089D02*
X0064837Y0128798D01*
X0062672Y0130963D01*
X0062672Y0158719D01*
X0058538Y0162853D01*
X0058538Y0169249D01*
X0062969Y0173680D01*
X0063853Y0173680D01*
X0063853Y0166199D02*
X0067593Y0166199D01*
X0067987Y0165806D01*
X0067987Y0162262D01*
X0070349Y0159310D01*
X0072121Y0166199D02*
X0067593Y0166199D01*
X0050861Y0166199D02*
X0050664Y0166396D01*
X0044955Y0166396D01*
X0048499Y0160491D02*
X0042593Y0154585D01*
X0031058Y0154585D01*
X0026058Y0159585D01*
X0026058Y0165018D01*
X0019759Y0171318D01*
X0044955Y0187656D02*
X0045152Y0187853D01*
X0050861Y0187853D01*
X0050861Y0160491D02*
X0048499Y0160491D01*
X0050172Y0132873D02*
X0050172Y0131652D01*
X0049995Y0131475D01*
X0039129Y0131475D01*
X0044955Y0123877D02*
X0051451Y0123877D01*
X0052239Y0123089D01*
X0055388Y0123089D02*
X0055507Y0126318D01*
X0050172Y0131652D01*
X0115822Y0162459D02*
X0118971Y0162459D01*
X0120546Y0160885D01*
X0120546Y0157735D01*
X0128026Y0172105D02*
X0128026Y0176239D01*
X0128420Y0176633D01*
X0125467Y0201829D02*
X0124207Y0203089D01*
X0124207Y0212853D01*
X0169877Y0212853D01*
X0171451Y0214428D01*
X0181451Y0206042D02*
X0179601Y0204192D01*
X0159916Y0204192D01*
X0156766Y0207341D01*
X0142593Y0207341D01*
X0138459Y0207341D01*
X0132948Y0201829D01*
X0124207Y0212853D02*
X0124207Y0221514D01*
X0082987Y0221908D02*
X0079798Y0218719D01*
X0056176Y0218719D02*
X0052987Y0221908D01*
X0181451Y0214428D02*
X0181451Y0206042D01*
D22*
X0154404Y0178207D03*
X0128420Y0176633D03*
X0129207Y0186081D03*
X0142593Y0207341D03*
X0106963Y0169940D03*
X0105782Y0177026D03*
X0096924Y0165609D03*
X0091018Y0166396D03*
X0091018Y0187656D03*
X0095152Y0190609D03*
X0099089Y0196908D03*
X0089247Y0199467D03*
X0085113Y0206554D03*
X0085113Y0211278D03*
X0072121Y0211278D03*
X0072121Y0206554D03*
X0067987Y0199467D03*
X0067987Y0194743D03*
X0063853Y0206554D03*
X0063853Y0211278D03*
X0050861Y0211278D03*
X0050861Y0206554D03*
X0046727Y0199467D03*
X0040822Y0190609D03*
X0044955Y0187656D03*
X0031373Y0191199D03*
X0032554Y0199467D03*
X0030192Y0177026D03*
X0027829Y0169940D03*
X0044955Y0166396D03*
X0050861Y0160491D03*
X0048179Y0152386D03*
X0044912Y0145584D03*
X0044490Y0137068D03*
X0055728Y0137443D03*
X0055388Y0145924D03*
X0067987Y0142774D03*
X0067987Y0132144D03*
X0086688Y0140412D03*
X0100073Y0120727D03*
X0104798Y0106554D03*
X0109522Y0103404D03*
X0115034Y0099467D03*
X0119759Y0096318D03*
X0125270Y0092381D03*
X0127633Y0088444D03*
X0123696Y0112853D03*
X0099286Y0086081D03*
X0088262Y0074270D03*
X0081963Y0071908D03*
X0068577Y0072696D03*
X0064640Y0071121D03*
X0064640Y0053798D03*
X0047318Y0061278D03*
X0044168Y0064822D03*
X0047318Y0068365D03*
X0043381Y0057735D03*
X0045743Y0053404D03*
X0022121Y0078207D03*
X0015822Y0086869D03*
X0020546Y0096318D03*
X0018184Y0105766D03*
X0016609Y0112853D03*
X0031570Y0108916D03*
X0058396Y0101671D03*
X0060265Y0092911D03*
X0068674Y0092561D03*
X0076850Y0092970D03*
X0076091Y0101846D03*
X0076908Y0110489D03*
X0066922Y0110722D03*
X0059856Y0110839D03*
X0067331Y0100269D03*
X0031963Y0143955D03*
X0031963Y0149861D03*
X0036849Y0150312D03*
X0067987Y0155176D03*
X0070349Y0159310D03*
X0120546Y0157735D03*
X0127633Y0057735D03*
X0139444Y0049861D03*
X0159129Y0013444D03*
X0029995Y0020333D03*
X0013459Y0014428D03*
X0020546Y0044349D03*
D23*
X0064640Y0071121D02*
X0064837Y0072892D01*
X0064837Y0077420D01*
X0067987Y0077420D02*
X0067987Y0073286D01*
X0068577Y0072696D01*
D24*
X0011294Y0117959D02*
X0011294Y0012262D01*
X0167003Y0012262D01*
X0167003Y0045924D01*
X0139444Y0073483D01*
X0139444Y0101042D01*
X0115822Y0124664D01*
X0096345Y0124664D01*
X0090243Y0118562D01*
X0094427Y0118562D01*
X0094820Y0118168D01*
X0115931Y0118168D01*
X0117199Y0116900D01*
X0138459Y0095640D01*
X0138459Y0073314D01*
X0165822Y0045952D01*
X0165822Y0022274D01*
X0160310Y0016762D01*
X0159157Y0015609D01*
X0027605Y0015609D01*
X0024455Y0018759D01*
X0022093Y0018759D01*
X0017790Y0023061D01*
X0017790Y0027842D01*
X0018943Y0028995D01*
X0021519Y0031571D01*
X0019738Y0033352D01*
X0019738Y0035333D01*
X0024522Y0035333D01*
X0024522Y0035333D01*
X0019738Y0035333D01*
X0019738Y0037315D01*
X0022541Y0040118D01*
X0024522Y0040118D01*
X0024522Y0035333D01*
X0024522Y0035333D01*
X0029307Y0035333D01*
X0029307Y0033352D01*
X0028099Y0032144D01*
X0030023Y0032144D01*
X0031176Y0030991D01*
X0032585Y0029582D01*
X0032710Y0029708D01*
X0036334Y0029708D01*
X0038897Y0027145D01*
X0038897Y0023521D01*
X0038071Y0022696D01*
X0040973Y0022696D01*
X0040148Y0023521D01*
X0040148Y0026924D01*
X0038628Y0028444D01*
X0037475Y0029597D01*
X0037475Y0032099D01*
X0036334Y0030959D01*
X0032710Y0030959D01*
X0030148Y0033521D01*
X0030148Y0037145D01*
X0031100Y0038098D01*
X0029179Y0040018D01*
X0028026Y0041171D01*
X0028026Y0054759D01*
X0026875Y0053608D01*
X0025206Y0052916D01*
X0017461Y0052916D01*
X0015791Y0053608D01*
X0014513Y0054886D01*
X0013822Y0056556D01*
X0013822Y0058363D01*
X0014513Y0060033D01*
X0015791Y0061311D01*
X0017461Y0062003D01*
X0025206Y0062003D01*
X0026875Y0061311D01*
X0028026Y0060160D01*
X0028026Y0064179D01*
X0027528Y0063682D01*
X0026898Y0063223D01*
X0026203Y0062869D01*
X0025462Y0062629D01*
X0024692Y0062507D01*
X0021333Y0062507D01*
X0021333Y0067459D01*
X0013412Y0067459D01*
X0013412Y0067070D01*
X0013534Y0066300D01*
X0013775Y0065558D01*
X0014129Y0064863D01*
X0014587Y0064233D01*
X0015138Y0063682D01*
X0015769Y0063223D01*
X0016464Y0062869D01*
X0017205Y0062629D01*
X0017975Y0062507D01*
X0021333Y0062507D01*
X0021333Y0067459D01*
X0021333Y0067459D01*
X0021333Y0067459D01*
X0013412Y0067459D01*
X0013412Y0067849D01*
X0013534Y0068619D01*
X0013775Y0069361D01*
X0014129Y0070055D01*
X0014587Y0070686D01*
X0015138Y0071237D01*
X0015769Y0071695D01*
X0016464Y0072049D01*
X0017205Y0072290D01*
X0017975Y0072412D01*
X0021333Y0072412D01*
X0021333Y0067459D01*
X0021333Y0067459D01*
X0021333Y0072412D01*
X0024692Y0072412D01*
X0025462Y0072290D01*
X0026203Y0072049D01*
X0026898Y0071695D01*
X0027528Y0071237D01*
X0028026Y0070739D01*
X0028026Y0071880D01*
X0025664Y0074242D01*
X0025664Y0100283D01*
X0026817Y0101436D01*
X0031332Y0105951D01*
X0030980Y0105951D01*
X0029890Y0106402D01*
X0029056Y0107236D01*
X0028604Y0108326D01*
X0028604Y0109506D01*
X0029056Y0110596D01*
X0029378Y0110918D01*
X0029186Y0110807D01*
X0028681Y0110672D01*
X0026156Y0110672D01*
X0026156Y0115314D01*
X0025566Y0115314D01*
X0025566Y0110672D01*
X0023041Y0110672D01*
X0022536Y0110807D01*
X0022083Y0111068D01*
X0021714Y0111438D01*
X0021453Y0111890D01*
X0021318Y0112395D01*
X0021318Y0115314D01*
X0025566Y0115314D01*
X0025566Y0115904D01*
X0021318Y0115904D01*
X0021318Y0117959D01*
X0011294Y0117959D01*
X0011294Y0116710D02*
X0021318Y0116710D01*
X0021318Y0114743D02*
X0011294Y0114743D01*
X0011294Y0112776D02*
X0021318Y0112776D01*
X0022533Y0110809D02*
X0011294Y0110809D01*
X0011294Y0108842D02*
X0028604Y0108842D01*
X0029188Y0110809D02*
X0029269Y0110809D01*
X0031570Y0108916D02*
X0033341Y0108916D01*
X0033341Y0115609D01*
X0033735Y0116003D01*
X0045152Y0116003D01*
X0049680Y0116347D02*
X0052029Y0114468D01*
X0052029Y0085098D01*
X0053421Y0083707D01*
X0084915Y0083707D01*
X0085884Y0084676D01*
X0085884Y0084507D01*
X0090821Y0084507D01*
X0090821Y0084506D01*
X0090822Y0084506D01*
X0090822Y0084507D01*
X0095759Y0084507D01*
X0095759Y0085491D01*
X0096321Y0085491D01*
X0096772Y0084402D01*
X0097606Y0083567D01*
X0098696Y0083116D01*
X0099876Y0083116D01*
X0100966Y0083567D01*
X0101800Y0084402D01*
X0102251Y0085492D01*
X0102251Y0086671D01*
X0101800Y0087761D01*
X0100966Y0088595D01*
X0100857Y0088640D01*
X0108625Y0088640D01*
X0109719Y0087547D01*
X0110988Y0086278D01*
X0125604Y0086278D01*
X0125953Y0085930D01*
X0127043Y0085478D01*
X0128222Y0085478D01*
X0129312Y0085930D01*
X0129404Y0086022D01*
X0129404Y0068649D01*
X0130673Y0067381D01*
X0130951Y0067381D01*
X0157160Y0041171D01*
X0157160Y0038882D01*
X0156334Y0039708D01*
X0152931Y0039708D01*
X0151046Y0041593D01*
X0143409Y0041593D01*
X0141834Y0043168D01*
X0133960Y0043168D01*
X0132385Y0044743D01*
X0125298Y0044743D01*
X0123724Y0046318D01*
X0115849Y0046318D01*
X0114275Y0047892D01*
X0107188Y0047892D01*
X0105613Y0049467D01*
X0097739Y0049467D01*
X0079404Y0067802D01*
X0079404Y0070337D01*
X0079449Y0070228D01*
X0080284Y0069394D01*
X0081373Y0068943D01*
X0082553Y0068943D01*
X0083643Y0069394D01*
X0084477Y0070228D01*
X0084928Y0071318D01*
X0087642Y0071318D01*
X0087673Y0071305D01*
X0088852Y0071305D01*
X0089942Y0071756D01*
X0090776Y0072591D01*
X0091228Y0073680D01*
X0091228Y0074860D01*
X0090776Y0075950D01*
X0089942Y0076784D01*
X0088852Y0077236D01*
X0087673Y0077236D01*
X0086583Y0076784D01*
X0086294Y0076495D01*
X0086294Y0081025D01*
X0085371Y0081947D01*
X0067053Y0081947D01*
X0067040Y0081960D01*
X0066587Y0082222D01*
X0066083Y0082357D01*
X0064837Y0082357D01*
X0063592Y0082357D01*
X0063087Y0082222D01*
X0062635Y0081960D01*
X0062622Y0081947D01*
X0050602Y0081947D01*
X0049680Y0081025D01*
X0049680Y0073815D01*
X0050270Y0073224D01*
X0050270Y0070109D01*
X0050233Y0070068D01*
X0050270Y0069301D01*
X0050270Y0068985D01*
X0049831Y0070045D01*
X0049286Y0070590D01*
X0049286Y0082476D01*
X0049680Y0082870D01*
X0049680Y0116347D01*
X0049680Y0114743D02*
X0051686Y0114743D01*
X0052029Y0112776D02*
X0049680Y0112776D01*
X0049680Y0110809D02*
X0052029Y0110809D01*
X0052029Y0108842D02*
X0049680Y0108842D01*
X0049680Y0106875D02*
X0052029Y0106875D01*
X0052029Y0104908D02*
X0049680Y0104908D01*
X0049680Y0102941D02*
X0052029Y0102941D01*
X0052029Y0100974D02*
X0049680Y0100974D01*
X0049680Y0099006D02*
X0052029Y0099006D01*
X0052029Y0097039D02*
X0049680Y0097039D01*
X0049680Y0095072D02*
X0052029Y0095072D01*
X0052029Y0093105D02*
X0049680Y0093105D01*
X0049680Y0091138D02*
X0052029Y0091138D01*
X0052029Y0089171D02*
X0049680Y0089171D01*
X0049680Y0087204D02*
X0052029Y0087204D01*
X0052029Y0085237D02*
X0049680Y0085237D01*
X0049680Y0083270D02*
X0085884Y0083270D01*
X0085885Y0083261D02*
X0086020Y0082756D01*
X0086281Y0082304D01*
X0086650Y0081935D01*
X0087103Y0081673D01*
X0087608Y0081538D01*
X0090821Y0081538D01*
X0090821Y0084506D01*
X0085884Y0084506D01*
X0085885Y0083261D01*
X0086016Y0081303D02*
X0129404Y0081303D01*
X0129404Y0079336D02*
X0086294Y0079336D01*
X0086294Y0077369D02*
X0129404Y0077369D01*
X0129404Y0075402D02*
X0091003Y0075402D01*
X0091126Y0073435D02*
X0129404Y0073435D01*
X0129404Y0071468D02*
X0089247Y0071468D01*
X0083750Y0069501D02*
X0129404Y0069501D01*
X0130519Y0067534D02*
X0079672Y0067534D01*
X0079404Y0069501D02*
X0080176Y0069501D01*
X0081639Y0065567D02*
X0132764Y0065567D01*
X0134731Y0063600D02*
X0083606Y0063600D01*
X0085573Y0061633D02*
X0136698Y0061633D01*
X0138665Y0059666D02*
X0087540Y0059666D01*
X0089507Y0057699D02*
X0140632Y0057699D01*
X0142599Y0055732D02*
X0091474Y0055732D01*
X0093441Y0053765D02*
X0144566Y0053765D01*
X0146533Y0051798D02*
X0095408Y0051798D01*
X0097375Y0049831D02*
X0148500Y0049831D01*
X0150467Y0047864D02*
X0114303Y0047864D01*
X0118386Y0037656D02*
X0119416Y0037656D01*
X0120148Y0036924D01*
X0120148Y0033521D01*
X0122710Y0030959D01*
X0126334Y0030959D01*
X0128897Y0033521D01*
X0128897Y0037145D01*
X0128386Y0037656D01*
X0129416Y0037656D01*
X0130148Y0036924D01*
X0130148Y0033521D01*
X0132710Y0030959D01*
X0136334Y0030959D01*
X0138897Y0033521D01*
X0138897Y0037145D01*
X0138386Y0037656D01*
X0139416Y0037656D01*
X0140148Y0036924D01*
X0140148Y0033521D01*
X0142710Y0030959D01*
X0146334Y0030959D01*
X0148897Y0033521D01*
X0148897Y0037145D01*
X0148386Y0037656D01*
X0149416Y0037656D01*
X0150148Y0036924D01*
X0150148Y0033521D01*
X0152710Y0030959D01*
X0156334Y0030959D01*
X0157160Y0031784D01*
X0157160Y0028882D01*
X0156334Y0029708D01*
X0152710Y0029708D01*
X0150148Y0027145D01*
X0150148Y0023521D01*
X0150973Y0022696D01*
X0148071Y0022696D01*
X0148897Y0023521D01*
X0148897Y0027145D01*
X0146334Y0029708D01*
X0142710Y0029708D01*
X0140148Y0027145D01*
X0140148Y0023521D01*
X0140973Y0022696D01*
X0138071Y0022696D01*
X0138897Y0023521D01*
X0138897Y0027145D01*
X0136334Y0029708D01*
X0132710Y0029708D01*
X0130148Y0027145D01*
X0130148Y0023521D01*
X0130973Y0022696D01*
X0128071Y0022696D01*
X0128897Y0023521D01*
X0128897Y0027145D01*
X0126334Y0029708D01*
X0122710Y0029708D01*
X0120148Y0027145D01*
X0120148Y0023521D01*
X0120973Y0022696D01*
X0118071Y0022696D01*
X0118897Y0023521D01*
X0118897Y0027145D01*
X0116334Y0029708D01*
X0112710Y0029708D01*
X0110148Y0027145D01*
X0110148Y0023521D01*
X0110973Y0022696D01*
X0108071Y0022696D01*
X0108897Y0023521D01*
X0108897Y0027145D01*
X0106334Y0029708D01*
X0102710Y0029708D01*
X0100148Y0027145D01*
X0100148Y0023521D01*
X0100973Y0022696D01*
X0098071Y0022696D01*
X0098897Y0023521D01*
X0098897Y0027145D01*
X0096334Y0029708D01*
X0092710Y0029708D01*
X0090148Y0027145D01*
X0090148Y0023521D01*
X0090973Y0022696D01*
X0088071Y0022696D01*
X0088897Y0023521D01*
X0088897Y0027145D01*
X0086334Y0029708D01*
X0082931Y0029708D01*
X0081570Y0031070D01*
X0081570Y0032099D01*
X0082710Y0030959D01*
X0086334Y0030959D01*
X0088897Y0033521D01*
X0088897Y0037145D01*
X0086334Y0039708D01*
X0082710Y0039708D01*
X0080931Y0037929D01*
X0078420Y0040440D01*
X0077267Y0041593D01*
X0070180Y0041593D01*
X0069759Y0042015D01*
X0068605Y0043168D01*
X0062306Y0043168D01*
X0060731Y0044743D01*
X0053645Y0044743D01*
X0053223Y0045164D01*
X0053223Y0045164D01*
X0052070Y0046318D01*
X0044196Y0046318D01*
X0043774Y0046739D01*
X0043774Y0051179D01*
X0044063Y0050890D01*
X0045153Y0050439D01*
X0046333Y0050439D01*
X0047423Y0050890D01*
X0048257Y0051724D01*
X0048708Y0052814D01*
X0048708Y0053994D01*
X0048257Y0055084D01*
X0047423Y0055918D01*
X0046333Y0056370D01*
X0046025Y0056370D01*
X0046346Y0057145D01*
X0046346Y0058325D01*
X0046273Y0058501D01*
X0046728Y0058313D01*
X0047907Y0058313D01*
X0048997Y0058764D01*
X0049831Y0059598D01*
X0050283Y0060688D01*
X0050283Y0061868D01*
X0049831Y0062958D01*
X0048997Y0063792D01*
X0047907Y0064244D01*
X0047133Y0064244D01*
X0047133Y0065399D01*
X0047907Y0065399D01*
X0048997Y0065851D01*
X0049831Y0066685D01*
X0050283Y0067775D01*
X0050283Y0068521D01*
X0050310Y0068494D01*
X0050312Y0068439D01*
X0050881Y0067923D01*
X0051423Y0067381D01*
X0051479Y0067381D01*
X0059345Y0060246D01*
X0059888Y0059703D01*
X0059944Y0059703D01*
X0059985Y0059666D01*
X0060751Y0059703D01*
X0068138Y0059703D01*
X0090148Y0037016D01*
X0090148Y0033521D01*
X0092710Y0030959D01*
X0096334Y0030959D01*
X0098897Y0033521D01*
X0098897Y0037145D01*
X0098386Y0037656D01*
X0099416Y0037656D01*
X0100148Y0036924D01*
X0100148Y0033521D01*
X0102710Y0030959D01*
X0106334Y0030959D01*
X0108897Y0033521D01*
X0108897Y0037145D01*
X0108386Y0037656D01*
X0109416Y0037656D01*
X0110148Y0036924D01*
X0110148Y0033521D01*
X0112710Y0030959D01*
X0116334Y0030959D01*
X0118897Y0033521D01*
X0118897Y0037145D01*
X0118386Y0037656D01*
X0118897Y0036062D02*
X0120148Y0036062D01*
X0120148Y0034095D02*
X0118897Y0034095D01*
X0117504Y0032128D02*
X0121541Y0032128D01*
X0121196Y0028194D02*
X0117849Y0028194D01*
X0118897Y0026227D02*
X0120148Y0026227D01*
X0120148Y0024260D02*
X0118897Y0024260D01*
X0111196Y0028194D02*
X0107849Y0028194D01*
X0108897Y0026227D02*
X0110148Y0026227D01*
X0110148Y0024260D02*
X0108897Y0024260D01*
X0107504Y0032128D02*
X0111541Y0032128D01*
X0110148Y0034095D02*
X0108897Y0034095D01*
X0108897Y0036062D02*
X0110148Y0036062D01*
X0101541Y0032128D02*
X0097504Y0032128D01*
X0098897Y0034095D02*
X0100148Y0034095D01*
X0100148Y0036062D02*
X0098897Y0036062D01*
X0097849Y0028194D02*
X0101196Y0028194D01*
X0100148Y0026227D02*
X0098897Y0026227D01*
X0098897Y0024260D02*
X0100148Y0024260D01*
X0091196Y0028194D02*
X0087849Y0028194D01*
X0088897Y0026227D02*
X0090148Y0026227D01*
X0090148Y0024260D02*
X0088897Y0024260D01*
X0082479Y0030161D02*
X0157160Y0030161D01*
X0151541Y0032128D02*
X0147504Y0032128D01*
X0148897Y0034095D02*
X0150148Y0034095D01*
X0150148Y0036062D02*
X0148897Y0036062D01*
X0152643Y0039996D02*
X0157160Y0039996D01*
X0156369Y0041963D02*
X0143039Y0041963D01*
X0140148Y0036062D02*
X0138897Y0036062D01*
X0138897Y0034095D02*
X0140148Y0034095D01*
X0141541Y0032128D02*
X0137504Y0032128D01*
X0137849Y0028194D02*
X0141196Y0028194D01*
X0140148Y0026227D02*
X0138897Y0026227D01*
X0138897Y0024260D02*
X0140148Y0024260D01*
X0147849Y0028194D02*
X0151196Y0028194D01*
X0150148Y0026227D02*
X0148897Y0026227D01*
X0148897Y0024260D02*
X0150148Y0024260D01*
X0159940Y0016392D02*
X0167003Y0016392D01*
X0167003Y0018359D02*
X0161907Y0018359D01*
X0163874Y0020326D02*
X0167003Y0020326D01*
X0167003Y0022293D02*
X0165822Y0022293D01*
X0165822Y0024260D02*
X0167003Y0024260D01*
X0167003Y0026227D02*
X0165822Y0026227D01*
X0165822Y0028194D02*
X0167003Y0028194D01*
X0167003Y0030161D02*
X0165822Y0030161D01*
X0165822Y0032128D02*
X0167003Y0032128D01*
X0167003Y0034095D02*
X0165822Y0034095D01*
X0165822Y0036062D02*
X0167003Y0036062D01*
X0167003Y0038029D02*
X0165822Y0038029D01*
X0165822Y0039996D02*
X0167003Y0039996D01*
X0167003Y0041963D02*
X0165822Y0041963D01*
X0165822Y0043930D02*
X0167003Y0043930D01*
X0167003Y0045897D02*
X0165822Y0045897D01*
X0165062Y0047864D02*
X0163909Y0047864D01*
X0163095Y0049831D02*
X0161942Y0049831D01*
X0161128Y0051798D02*
X0159975Y0051798D01*
X0159161Y0053765D02*
X0158008Y0053765D01*
X0157194Y0055732D02*
X0156041Y0055732D01*
X0155227Y0057699D02*
X0154074Y0057699D01*
X0153260Y0059666D02*
X0152107Y0059666D01*
X0151293Y0061633D02*
X0150140Y0061633D01*
X0149326Y0063600D02*
X0148173Y0063600D01*
X0147359Y0065567D02*
X0146206Y0065567D01*
X0145392Y0067534D02*
X0144239Y0067534D01*
X0143425Y0069501D02*
X0142272Y0069501D01*
X0141458Y0071468D02*
X0140305Y0071468D01*
X0139491Y0073435D02*
X0138459Y0073435D01*
X0138459Y0075402D02*
X0139444Y0075402D01*
X0139444Y0077369D02*
X0138459Y0077369D01*
X0138459Y0079336D02*
X0139444Y0079336D01*
X0139444Y0081303D02*
X0138459Y0081303D01*
X0138459Y0083270D02*
X0139444Y0083270D01*
X0139444Y0085237D02*
X0138459Y0085237D01*
X0138459Y0087204D02*
X0139444Y0087204D01*
X0139444Y0089171D02*
X0138459Y0089171D01*
X0138459Y0091138D02*
X0139444Y0091138D01*
X0139444Y0093105D02*
X0138459Y0093105D01*
X0138459Y0095072D02*
X0139444Y0095072D01*
X0139444Y0097039D02*
X0137060Y0097039D01*
X0135092Y0099006D02*
X0139444Y0099006D01*
X0139444Y0100974D02*
X0133125Y0100974D01*
X0131158Y0102941D02*
X0137545Y0102941D01*
X0135578Y0104908D02*
X0129191Y0104908D01*
X0127224Y0106875D02*
X0133611Y0106875D01*
X0131644Y0108842D02*
X0125257Y0108842D01*
X0123290Y0110809D02*
X0129677Y0110809D01*
X0127710Y0112776D02*
X0121323Y0112776D01*
X0119356Y0114743D02*
X0125743Y0114743D01*
X0123776Y0116710D02*
X0117389Y0116710D01*
X0119842Y0120644D02*
X0092325Y0120644D01*
X0094292Y0122611D02*
X0117875Y0122611D01*
X0115908Y0124578D02*
X0096259Y0124578D01*
X0090358Y0118677D02*
X0121809Y0118677D01*
X0110061Y0087204D02*
X0102031Y0087204D01*
X0102146Y0085237D02*
X0129404Y0085237D01*
X0129404Y0083270D02*
X0100249Y0083270D01*
X0098324Y0083270D02*
X0095759Y0083270D01*
X0095759Y0083261D02*
X0095759Y0084506D01*
X0090822Y0084506D01*
X0090822Y0081538D01*
X0094036Y0081538D01*
X0094540Y0081673D01*
X0094993Y0081935D01*
X0095362Y0082304D01*
X0095623Y0082756D01*
X0095759Y0083261D01*
X0095759Y0085237D02*
X0096426Y0085237D01*
X0090822Y0083270D02*
X0090821Y0083270D01*
X0069168Y0069730D02*
X0069168Y0068365D01*
X0064668Y0068365D01*
X0063656Y0069377D01*
X0063656Y0072483D01*
X0064837Y0072483D01*
X0064837Y0077420D01*
X0064837Y0082357D01*
X0064837Y0077420D01*
X0064837Y0077420D01*
X0064837Y0077420D01*
X0064837Y0072483D01*
X0065612Y0072483D01*
X0065612Y0072106D01*
X0066064Y0071016D01*
X0066898Y0070182D01*
X0067988Y0069730D01*
X0069167Y0069730D01*
X0069168Y0069730D01*
X0069168Y0069501D02*
X0063656Y0069501D01*
X0063656Y0071468D02*
X0065876Y0071468D01*
X0064837Y0073435D02*
X0064837Y0073435D01*
X0064837Y0075402D02*
X0064837Y0075402D01*
X0064837Y0077369D02*
X0064837Y0077369D01*
X0064837Y0079336D02*
X0064837Y0079336D01*
X0064837Y0081303D02*
X0064837Y0081303D01*
X0051270Y0067534D02*
X0050183Y0067534D01*
X0050261Y0069501D02*
X0050057Y0069501D01*
X0050270Y0071468D02*
X0049286Y0071468D01*
X0049286Y0073435D02*
X0050059Y0073435D01*
X0049680Y0075402D02*
X0049286Y0075402D01*
X0049286Y0077369D02*
X0049680Y0077369D01*
X0049680Y0079336D02*
X0049286Y0079336D01*
X0049286Y0081303D02*
X0049958Y0081303D01*
X0048312Y0065567D02*
X0053478Y0065567D01*
X0055647Y0063600D02*
X0049189Y0063600D01*
X0050283Y0061633D02*
X0057816Y0061633D01*
X0059985Y0059666D02*
X0049860Y0059666D01*
X0046346Y0057699D02*
X0070082Y0057699D01*
X0068174Y0059666D02*
X0059988Y0059666D01*
X0071991Y0055732D02*
X0047608Y0055732D01*
X0048708Y0053765D02*
X0073899Y0053765D01*
X0075807Y0051798D02*
X0048287Y0051798D01*
X0043774Y0049831D02*
X0077715Y0049831D01*
X0079624Y0047864D02*
X0043774Y0047864D01*
X0052490Y0045897D02*
X0081532Y0045897D01*
X0083440Y0043930D02*
X0061544Y0043930D01*
X0069810Y0041963D02*
X0085348Y0041963D01*
X0087256Y0039996D02*
X0078864Y0039996D01*
X0080831Y0038029D02*
X0081031Y0038029D01*
X0088013Y0038029D02*
X0089165Y0038029D01*
X0088897Y0036062D02*
X0090148Y0036062D01*
X0090148Y0034095D02*
X0088897Y0034095D01*
X0087504Y0032128D02*
X0091541Y0032128D01*
X0124144Y0045897D02*
X0152434Y0045897D01*
X0154402Y0043930D02*
X0133198Y0043930D01*
X0130148Y0036062D02*
X0128897Y0036062D01*
X0128897Y0034095D02*
X0130148Y0034095D01*
X0131541Y0032128D02*
X0127504Y0032128D01*
X0127849Y0028194D02*
X0131196Y0028194D01*
X0130148Y0026227D02*
X0128897Y0026227D01*
X0128897Y0024260D02*
X0130148Y0024260D01*
X0167003Y0014425D02*
X0011294Y0014425D01*
X0011294Y0016392D02*
X0026822Y0016392D01*
X0024855Y0018359D02*
X0011294Y0018359D01*
X0011294Y0020326D02*
X0020525Y0020326D01*
X0018558Y0022293D02*
X0011294Y0022293D01*
X0011294Y0024260D02*
X0017790Y0024260D01*
X0017790Y0026227D02*
X0011294Y0026227D01*
X0011294Y0028194D02*
X0018142Y0028194D01*
X0020109Y0030161D02*
X0011294Y0030161D01*
X0011294Y0032128D02*
X0020962Y0032128D01*
X0019738Y0034095D02*
X0011294Y0034095D01*
X0011294Y0036062D02*
X0019738Y0036062D01*
X0020452Y0038029D02*
X0011294Y0038029D01*
X0011294Y0039996D02*
X0022419Y0039996D01*
X0024522Y0039996D02*
X0024522Y0039996D01*
X0024522Y0040118D02*
X0024522Y0035333D01*
X0024522Y0035333D01*
X0029307Y0035333D01*
X0029307Y0037315D01*
X0026504Y0040118D01*
X0024522Y0040118D01*
X0024522Y0038029D02*
X0024522Y0038029D01*
X0024522Y0036062D02*
X0024522Y0036062D01*
X0028593Y0038029D02*
X0031031Y0038029D01*
X0030148Y0036062D02*
X0029307Y0036062D01*
X0029307Y0034095D02*
X0030148Y0034095D01*
X0030039Y0032128D02*
X0031541Y0032128D01*
X0032006Y0030161D02*
X0037475Y0030161D01*
X0037849Y0028194D02*
X0038878Y0028194D01*
X0038897Y0026227D02*
X0040148Y0026227D01*
X0040148Y0024260D02*
X0038897Y0024260D01*
X0029202Y0039996D02*
X0026626Y0039996D01*
X0028026Y0041963D02*
X0011294Y0041963D01*
X0011294Y0043930D02*
X0028026Y0043930D01*
X0028026Y0045897D02*
X0011294Y0045897D01*
X0011294Y0047864D02*
X0028026Y0047864D01*
X0028026Y0049831D02*
X0011294Y0049831D01*
X0011294Y0051798D02*
X0028026Y0051798D01*
X0028026Y0053765D02*
X0027033Y0053765D01*
X0026097Y0061633D02*
X0028026Y0061633D01*
X0028026Y0063600D02*
X0027416Y0063600D01*
X0021333Y0063600D02*
X0021333Y0063600D01*
X0021333Y0065567D02*
X0021333Y0065567D01*
X0021333Y0067534D02*
X0021333Y0067534D01*
X0021333Y0069501D02*
X0021333Y0069501D01*
X0021333Y0071468D02*
X0021333Y0071468D01*
X0026471Y0073435D02*
X0011294Y0073435D01*
X0011294Y0071468D02*
X0015457Y0071468D01*
X0013847Y0069501D02*
X0011294Y0069501D01*
X0011294Y0067534D02*
X0013412Y0067534D01*
X0013772Y0065567D02*
X0011294Y0065567D01*
X0011294Y0063600D02*
X0015250Y0063600D01*
X0016569Y0061633D02*
X0011294Y0061633D01*
X0011294Y0059666D02*
X0014361Y0059666D01*
X0013822Y0057699D02*
X0011294Y0057699D01*
X0011294Y0055732D02*
X0014163Y0055732D01*
X0015634Y0053765D02*
X0011294Y0053765D01*
X0027210Y0071468D02*
X0028026Y0071468D01*
X0025664Y0075402D02*
X0011294Y0075402D01*
X0011294Y0077369D02*
X0025664Y0077369D01*
X0025664Y0079336D02*
X0011294Y0079336D01*
X0011294Y0081303D02*
X0025664Y0081303D01*
X0025664Y0083270D02*
X0011294Y0083270D01*
X0011294Y0085237D02*
X0025664Y0085237D01*
X0025664Y0087204D02*
X0011294Y0087204D01*
X0011294Y0089171D02*
X0025664Y0089171D01*
X0025664Y0091138D02*
X0011294Y0091138D01*
X0011294Y0093105D02*
X0025664Y0093105D01*
X0025664Y0095072D02*
X0011294Y0095072D01*
X0011294Y0097039D02*
X0025664Y0097039D01*
X0025664Y0099006D02*
X0011294Y0099006D01*
X0011294Y0100974D02*
X0026355Y0100974D01*
X0028322Y0102941D02*
X0011294Y0102941D01*
X0011294Y0104908D02*
X0030289Y0104908D01*
X0029417Y0106875D02*
X0011294Y0106875D01*
X0025566Y0110809D02*
X0026156Y0110809D01*
X0026156Y0112776D02*
X0025566Y0112776D01*
X0025566Y0114743D02*
X0026156Y0114743D01*
X0067987Y0123089D02*
X0067987Y0132144D01*
X0096924Y0165609D02*
X0096924Y0176633D01*
X0106373Y0186081D01*
X0129207Y0186081D01*
X0115822Y0162459D02*
X0114444Y0162459D01*
X0106963Y0162459D02*
X0105585Y0161081D01*
X0105585Y0150924D01*
X0153617Y0152026D02*
X0177357Y0152026D01*
X0178341Y0151042D01*
X0193814Y0159270D02*
X0179601Y0171908D01*
X0171727Y0171908D01*
X0166215Y0177420D01*
X0155192Y0177420D01*
X0154404Y0178207D01*
X0153617Y0144546D02*
X0153617Y0112066D01*
X0154404Y0111278D01*
X0157160Y0108522D01*
X0163814Y0101869D01*
X0163814Y0091593D01*
X0193814Y0091593D02*
X0193814Y0159270D01*
X0167003Y0012458D02*
X0011294Y0012458D01*
D25*
X0054404Y0086081D02*
X0054404Y0115609D01*
X0048499Y0120333D01*
X0047554Y0120333D01*
X0048637Y0121416D01*
X0048836Y0121896D01*
X0049864Y0121896D01*
X0049864Y0119560D01*
X0050679Y0118746D01*
X0053799Y0118746D01*
X0053814Y0118760D01*
X0053828Y0118746D01*
X0056399Y0118746D01*
X0056449Y0118696D01*
X0056859Y0118459D01*
X0057317Y0118336D01*
X0058538Y0118336D01*
X0059759Y0118336D01*
X0060217Y0118459D01*
X0060628Y0118696D01*
X0060677Y0118746D01*
X0063248Y0118746D01*
X0063262Y0118760D01*
X0063277Y0118746D01*
X0066398Y0118746D01*
X0066412Y0118760D01*
X0066427Y0118746D01*
X0069547Y0118746D01*
X0069562Y0118760D01*
X0069576Y0118746D01*
X0072697Y0118746D01*
X0072711Y0118760D01*
X0072726Y0118746D01*
X0075296Y0118746D01*
X0075346Y0118696D01*
X0075757Y0118459D01*
X0076214Y0118336D01*
X0077436Y0118336D01*
X0078657Y0118336D01*
X0079115Y0118459D01*
X0079525Y0118696D01*
X0079575Y0118746D01*
X0082146Y0118746D01*
X0082160Y0118760D01*
X0082175Y0118746D01*
X0085295Y0118746D01*
X0086110Y0119560D01*
X0086110Y0121108D01*
X0089083Y0121108D01*
X0092508Y0124533D01*
X0093669Y0125694D01*
X0093669Y0126459D01*
X0094157Y0126662D01*
X0095383Y0127888D01*
X0096047Y0129490D01*
X0096047Y0134883D01*
X0096406Y0135242D01*
X0097566Y0136402D01*
X0097566Y0147858D01*
X0097619Y0147880D01*
X0098629Y0148890D01*
X0099176Y0150210D01*
X0099176Y0151638D01*
X0098629Y0152958D01*
X0097619Y0153968D01*
X0096299Y0154514D01*
X0094871Y0154514D01*
X0093551Y0153968D01*
X0092541Y0152958D01*
X0091995Y0151638D01*
X0091995Y0150210D01*
X0092541Y0148890D01*
X0093551Y0147880D01*
X0093604Y0147858D01*
X0093604Y0140218D01*
X0092555Y0140653D01*
X0090821Y0140653D01*
X0089218Y0139989D01*
X0087992Y0138763D01*
X0087329Y0137161D01*
X0087329Y0129490D01*
X0087992Y0127888D01*
X0089126Y0126754D01*
X0087442Y0125070D01*
X0086110Y0125070D01*
X0086110Y0126618D01*
X0085295Y0127433D01*
X0084928Y0127433D01*
X0085383Y0127888D01*
X0086047Y0129490D01*
X0086047Y0137161D01*
X0085383Y0138763D01*
X0084157Y0139989D01*
X0082555Y0140653D01*
X0080821Y0140653D01*
X0079218Y0139989D01*
X0077992Y0138763D01*
X0077645Y0137925D01*
X0077645Y0156717D01*
X0080618Y0159691D01*
X0081779Y0160851D01*
X0081779Y0162250D01*
X0088642Y0162250D01*
X0089456Y0163064D01*
X0089456Y0164033D01*
X0090465Y0163615D01*
X0091572Y0163615D01*
X0092594Y0164039D01*
X0093376Y0164821D01*
X0093799Y0165843D01*
X0093799Y0166950D01*
X0093376Y0167972D01*
X0092594Y0168754D01*
X0091572Y0169177D01*
X0090465Y0169177D01*
X0089456Y0168759D01*
X0089456Y0169335D01*
X0088851Y0169940D01*
X0089456Y0170545D01*
X0089456Y0176815D01*
X0089245Y0177026D01*
X0089456Y0177238D01*
X0089456Y0183508D01*
X0088851Y0184113D01*
X0089456Y0184718D01*
X0089456Y0185293D01*
X0090465Y0184875D01*
X0091572Y0184875D01*
X0092594Y0185298D01*
X0093376Y0186081D01*
X0093799Y0187103D01*
X0093799Y0188209D01*
X0093376Y0189232D01*
X0092594Y0190014D01*
X0091572Y0190437D01*
X0090465Y0190437D01*
X0089456Y0190019D01*
X0089456Y0190988D01*
X0088642Y0191803D01*
X0081779Y0191803D01*
X0081779Y0192762D01*
X0085492Y0192762D01*
X0086307Y0193576D01*
X0086307Y0200634D01*
X0085492Y0201448D01*
X0081779Y0201448D01*
X0081779Y0214722D01*
X0082120Y0214581D01*
X0083854Y0214581D01*
X0085456Y0215244D01*
X0086682Y0216470D01*
X0087346Y0218073D01*
X0087346Y0225744D01*
X0086682Y0227346D01*
X0085456Y0228572D01*
X0083854Y0229236D01*
X0082120Y0229236D01*
X0080518Y0228572D01*
X0079291Y0227346D01*
X0078628Y0225744D01*
X0078628Y0220351D01*
X0077987Y0219710D01*
X0077346Y0220351D01*
X0077346Y0225744D01*
X0076682Y0227346D01*
X0075456Y0228572D01*
X0073854Y0229236D01*
X0072120Y0229236D01*
X0070518Y0228572D01*
X0069291Y0227346D01*
X0068628Y0225744D01*
X0068628Y0218073D01*
X0069291Y0216470D01*
X0070518Y0215244D01*
X0072120Y0214581D01*
X0073854Y0214581D01*
X0075455Y0215244D01*
X0075455Y0201448D01*
X0071742Y0201448D01*
X0070927Y0200634D01*
X0070927Y0193576D01*
X0071742Y0192762D01*
X0075455Y0192762D01*
X0075455Y0191803D01*
X0069968Y0191803D01*
X0069968Y0192791D01*
X0070345Y0193167D01*
X0070768Y0194190D01*
X0070768Y0195296D01*
X0070345Y0196318D01*
X0069562Y0197100D01*
X0068540Y0197524D01*
X0067434Y0197524D01*
X0066412Y0197100D01*
X0065629Y0196318D01*
X0065206Y0195296D01*
X0065206Y0194190D01*
X0065629Y0193167D01*
X0066006Y0192791D01*
X0066006Y0191803D01*
X0060519Y0191803D01*
X0060519Y0192762D01*
X0064232Y0192762D01*
X0065047Y0193576D01*
X0065047Y0200634D01*
X0064232Y0201448D01*
X0060519Y0201448D01*
X0060519Y0215244D01*
X0062120Y0214581D01*
X0063854Y0214581D01*
X0065456Y0215244D01*
X0066682Y0216470D01*
X0067346Y0218073D01*
X0067346Y0225744D01*
X0066682Y0227346D01*
X0065456Y0228572D01*
X0063854Y0229236D01*
X0062120Y0229236D01*
X0060518Y0228572D01*
X0059291Y0227346D01*
X0058628Y0225744D01*
X0058628Y0220351D01*
X0057987Y0219710D01*
X0057346Y0220351D01*
X0057346Y0225744D01*
X0056682Y0227346D01*
X0055456Y0228572D01*
X0053854Y0229236D01*
X0052120Y0229236D01*
X0050518Y0228572D01*
X0049291Y0227346D01*
X0048628Y0225744D01*
X0048628Y0218073D01*
X0049291Y0216470D01*
X0050518Y0215244D01*
X0052120Y0214581D01*
X0053854Y0214581D01*
X0054195Y0214722D01*
X0054195Y0201448D01*
X0050482Y0201448D01*
X0049667Y0200634D01*
X0049667Y0193576D01*
X0050482Y0192762D01*
X0054195Y0192762D01*
X0054195Y0191803D01*
X0047332Y0191803D01*
X0046518Y0190988D01*
X0046518Y0190019D01*
X0045509Y0190437D01*
X0044402Y0190437D01*
X0043380Y0190014D01*
X0042598Y0189232D01*
X0042174Y0188209D01*
X0042174Y0187103D01*
X0042598Y0186081D01*
X0043380Y0185298D01*
X0044402Y0184875D01*
X0045509Y0184875D01*
X0046518Y0185293D01*
X0046518Y0184718D01*
X0047123Y0184113D01*
X0046518Y0183508D01*
X0046518Y0177238D01*
X0046729Y0177026D01*
X0046518Y0176815D01*
X0046518Y0170545D01*
X0047123Y0169940D01*
X0046518Y0169335D01*
X0046518Y0168759D01*
X0045509Y0169177D01*
X0044402Y0169177D01*
X0043380Y0168754D01*
X0042598Y0167972D01*
X0042174Y0166950D01*
X0042174Y0165843D01*
X0042598Y0164821D01*
X0043380Y0164039D01*
X0044402Y0163615D01*
X0045509Y0163615D01*
X0046518Y0164033D01*
X0046518Y0163064D01*
X0047332Y0162250D01*
X0047456Y0162250D01*
X0041773Y0156566D01*
X0038117Y0156566D01*
X0039102Y0157551D01*
X0039648Y0158871D01*
X0039648Y0160299D01*
X0039102Y0161619D01*
X0038092Y0162629D01*
X0036772Y0163176D01*
X0035344Y0163176D01*
X0034024Y0162629D01*
X0033014Y0161619D01*
X0032467Y0160299D01*
X0032467Y0158871D01*
X0033014Y0157551D01*
X0033999Y0156566D01*
X0031878Y0156566D01*
X0029626Y0158818D01*
X0029648Y0158871D01*
X0029648Y0160299D01*
X0029102Y0161619D01*
X0028092Y0162629D01*
X0028039Y0162651D01*
X0028039Y0165839D01*
X0026878Y0166999D01*
X0024102Y0169776D01*
X0024102Y0174453D01*
X0023778Y0174776D01*
X0023816Y0174798D01*
X0024152Y0175134D01*
X0024389Y0175544D01*
X0024511Y0176002D01*
X0024511Y0178318D01*
X0020238Y0178318D01*
X0020238Y0179277D01*
X0024511Y0179277D01*
X0024511Y0181594D01*
X0024389Y0182052D01*
X0024152Y0182462D01*
X0023816Y0182797D01*
X0023406Y0183034D01*
X0022948Y0183157D01*
X0020238Y0183157D01*
X0020238Y0179277D01*
X0019279Y0179277D01*
X0019279Y0178318D01*
X0015006Y0178318D01*
X0015006Y0176002D01*
X0015128Y0175544D01*
X0015365Y0175134D01*
X0015701Y0174798D01*
X0015739Y0174776D01*
X0015415Y0174453D01*
X0015415Y0168183D01*
X0016230Y0167368D01*
X0020906Y0167368D01*
X0024077Y0164198D01*
X0024077Y0162651D01*
X0024024Y0162629D01*
X0023014Y0161619D01*
X0022467Y0160299D01*
X0022467Y0158871D01*
X0023014Y0157551D01*
X0024024Y0156541D01*
X0025344Y0155995D01*
X0026772Y0155995D01*
X0026825Y0156017D01*
X0030237Y0152604D01*
X0043414Y0152604D01*
X0044574Y0153765D01*
X0049114Y0158305D01*
X0049286Y0158133D01*
X0050308Y0157710D01*
X0051414Y0157710D01*
X0052436Y0158133D01*
X0053219Y0158915D01*
X0053642Y0159938D01*
X0053642Y0161044D01*
X0053219Y0162066D01*
X0053035Y0162250D01*
X0054195Y0162250D01*
X0054195Y0160851D01*
X0058329Y0156717D01*
X0058329Y0128962D01*
X0059448Y0127842D01*
X0058538Y0127842D01*
X0057317Y0127842D01*
X0056899Y0127730D01*
X0056399Y0128267D01*
X0056357Y0128269D01*
X0054515Y0130111D01*
X0054515Y0136008D01*
X0054191Y0136331D01*
X0054230Y0136354D01*
X0054565Y0136689D01*
X0054802Y0137099D01*
X0054925Y0137557D01*
X0054925Y0139873D01*
X0050652Y0139873D01*
X0050652Y0140833D01*
X0054925Y0140833D01*
X0054925Y0143149D01*
X0054802Y0143607D01*
X0054565Y0144017D01*
X0054230Y0144352D01*
X0053819Y0144589D01*
X0053362Y0144712D01*
X0050651Y0144712D01*
X0050651Y0140833D01*
X0049692Y0140833D01*
X0049692Y0144712D01*
X0046982Y0144712D01*
X0046524Y0144589D01*
X0046114Y0144352D01*
X0045779Y0144017D01*
X0045542Y0143607D01*
X0045419Y0143149D01*
X0045419Y0140833D01*
X0049692Y0140833D01*
X0049692Y0139873D01*
X0045419Y0139873D01*
X0045419Y0137557D01*
X0045542Y0137099D01*
X0045779Y0136689D01*
X0046114Y0136354D01*
X0046152Y0136331D01*
X0045829Y0136008D01*
X0045829Y0133456D01*
X0043275Y0133456D01*
X0043275Y0135201D01*
X0042460Y0136015D01*
X0035797Y0136015D01*
X0034982Y0135201D01*
X0034982Y0127749D01*
X0035797Y0126935D01*
X0041871Y0126935D01*
X0041273Y0126337D01*
X0040612Y0124741D01*
X0040612Y0123013D01*
X0041273Y0121416D01*
X0042356Y0120333D01*
X0011110Y0120333D01*
X0011110Y0235281D01*
X0215809Y0235281D01*
X0215809Y0012078D01*
X0170940Y0012078D01*
X0170940Y0049861D01*
X0143381Y0077420D01*
X0143381Y0104979D01*
X0119759Y0128601D01*
X0098105Y0129782D01*
X0083932Y0115609D01*
X0083932Y0086081D01*
X0054404Y0086081D01*
X0054404Y0087219D02*
X0083932Y0087219D01*
X0083932Y0088818D02*
X0054404Y0088818D01*
X0054404Y0090416D02*
X0083932Y0090416D01*
X0083932Y0092015D02*
X0054404Y0092015D01*
X0054404Y0093613D02*
X0083932Y0093613D01*
X0083932Y0095212D02*
X0054404Y0095212D01*
X0054404Y0096810D02*
X0083932Y0096810D01*
X0083932Y0098409D02*
X0054404Y0098409D01*
X0054404Y0100007D02*
X0083932Y0100007D01*
X0083932Y0101606D02*
X0054404Y0101606D01*
X0054404Y0103204D02*
X0083932Y0103204D01*
X0083932Y0104803D02*
X0054404Y0104803D01*
X0054404Y0106401D02*
X0083932Y0106401D01*
X0083932Y0108000D02*
X0054404Y0108000D01*
X0054404Y0109599D02*
X0083932Y0109599D01*
X0083932Y0111197D02*
X0054404Y0111197D01*
X0054404Y0112796D02*
X0083932Y0112796D01*
X0083932Y0114394D02*
X0054404Y0114394D01*
X0053925Y0115993D02*
X0084315Y0115993D01*
X0085914Y0117591D02*
X0051927Y0117591D01*
X0050235Y0119190D02*
X0049928Y0119190D01*
X0049864Y0120788D02*
X0048009Y0120788D01*
X0041902Y0120788D02*
X0011110Y0120788D01*
X0011110Y0122387D02*
X0040871Y0122387D01*
X0040612Y0123985D02*
X0011110Y0123985D01*
X0011110Y0125584D02*
X0040961Y0125584D01*
X0035549Y0127182D02*
X0011110Y0127182D01*
X0011110Y0128781D02*
X0034982Y0128781D01*
X0034982Y0130379D02*
X0011110Y0130379D01*
X0011110Y0131978D02*
X0034982Y0131978D01*
X0034982Y0133576D02*
X0011110Y0133576D01*
X0011110Y0135175D02*
X0034982Y0135175D01*
X0036004Y0138372D02*
X0011110Y0138372D01*
X0011110Y0139970D02*
X0034573Y0139970D01*
X0034573Y0139899D02*
X0034695Y0139442D01*
X0034932Y0139031D01*
X0035267Y0138696D01*
X0035678Y0138459D01*
X0036136Y0138336D01*
X0038551Y0138336D01*
X0038551Y0142708D01*
X0039707Y0142708D01*
X0039707Y0143864D01*
X0043684Y0143864D01*
X0043684Y0146673D01*
X0043562Y0147130D01*
X0043325Y0147541D01*
X0042990Y0147876D01*
X0042579Y0148113D01*
X0042121Y0148236D01*
X0039707Y0148236D01*
X0039707Y0143864D01*
X0038551Y0143864D01*
X0038551Y0148236D01*
X0036136Y0148236D01*
X0035678Y0148113D01*
X0035267Y0147876D01*
X0034932Y0147541D01*
X0034695Y0147130D01*
X0034573Y0146673D01*
X0034573Y0143864D01*
X0038551Y0143864D01*
X0038551Y0142708D01*
X0034573Y0142708D01*
X0034573Y0139899D01*
X0034573Y0141569D02*
X0011110Y0141569D01*
X0011110Y0143167D02*
X0038551Y0143167D01*
X0039707Y0143167D02*
X0045424Y0143167D01*
X0045419Y0141569D02*
X0043684Y0141569D01*
X0043684Y0142708D02*
X0043684Y0139899D01*
X0043562Y0139442D01*
X0043325Y0139031D01*
X0042990Y0138696D01*
X0042579Y0138459D01*
X0042121Y0138336D01*
X0039707Y0138336D01*
X0039707Y0142708D01*
X0043684Y0142708D01*
X0043684Y0144766D02*
X0058329Y0144766D01*
X0058329Y0146364D02*
X0043684Y0146364D01*
X0042840Y0147963D02*
X0058329Y0147963D01*
X0058329Y0149561D02*
X0011110Y0149561D01*
X0011110Y0147963D02*
X0035418Y0147963D01*
X0034573Y0146364D02*
X0011110Y0146364D01*
X0011110Y0144766D02*
X0034573Y0144766D01*
X0038551Y0144766D02*
X0039707Y0144766D01*
X0039707Y0146364D02*
X0038551Y0146364D01*
X0038551Y0147963D02*
X0039707Y0147963D01*
X0043568Y0152758D02*
X0058329Y0152758D01*
X0058329Y0151160D02*
X0011110Y0151160D01*
X0011110Y0152758D02*
X0030083Y0152758D01*
X0028484Y0154357D02*
X0011110Y0154357D01*
X0011110Y0155955D02*
X0014369Y0155955D01*
X0014163Y0156041D02*
X0014891Y0155739D01*
X0015664Y0155585D01*
X0016058Y0155585D01*
X0016452Y0155585D01*
X0017224Y0155739D01*
X0017952Y0156041D01*
X0018608Y0156478D01*
X0019165Y0157035D01*
X0019602Y0157691D01*
X0019904Y0158419D01*
X0020058Y0159191D01*
X0020058Y0159585D01*
X0016058Y0159585D01*
X0016058Y0159585D01*
X0016058Y0155585D01*
X0016058Y0159585D01*
X0016058Y0159585D01*
X0020058Y0159585D01*
X0020058Y0159979D01*
X0019904Y0160752D01*
X0019602Y0161480D01*
X0019165Y0162135D01*
X0018608Y0162692D01*
X0017952Y0163130D01*
X0017224Y0163432D01*
X0016452Y0163585D01*
X0016058Y0163585D01*
X0016058Y0159585D01*
X0012058Y0159585D01*
X0012058Y0159191D01*
X0012211Y0158419D01*
X0012513Y0157691D01*
X0012951Y0157035D01*
X0013508Y0156478D01*
X0014163Y0156041D01*
X0016058Y0155955D02*
X0016058Y0155955D01*
X0016058Y0157554D02*
X0016058Y0157554D01*
X0016058Y0159152D02*
X0016058Y0159152D01*
X0016058Y0159585D02*
X0016058Y0159585D01*
X0016058Y0159585D01*
X0012058Y0159585D01*
X0012058Y0159979D01*
X0012211Y0160752D01*
X0012513Y0161480D01*
X0012951Y0162135D01*
X0013508Y0162692D01*
X0014163Y0163130D01*
X0014891Y0163432D01*
X0015664Y0163585D01*
X0016058Y0163585D01*
X0016058Y0159585D01*
X0016058Y0160751D02*
X0016058Y0160751D01*
X0016058Y0162349D02*
X0016058Y0162349D01*
X0018950Y0162349D02*
X0023744Y0162349D01*
X0024077Y0163948D02*
X0011110Y0163948D01*
X0011110Y0165546D02*
X0022728Y0165546D01*
X0021129Y0167145D02*
X0011110Y0167145D01*
X0011110Y0168743D02*
X0015415Y0168743D01*
X0015415Y0170342D02*
X0011110Y0170342D01*
X0011110Y0171940D02*
X0015415Y0171940D01*
X0015415Y0173539D02*
X0011110Y0173539D01*
X0011110Y0175137D02*
X0015363Y0175137D01*
X0015006Y0176736D02*
X0011110Y0176736D01*
X0011110Y0178334D02*
X0019279Y0178334D01*
X0019279Y0179277D02*
X0015006Y0179277D01*
X0015006Y0181594D01*
X0015128Y0182052D01*
X0015365Y0182462D01*
X0015701Y0182797D01*
X0016111Y0183034D01*
X0016569Y0183157D01*
X0019279Y0183157D01*
X0019279Y0179277D01*
X0019279Y0179933D02*
X0020238Y0179933D01*
X0020238Y0178334D02*
X0046518Y0178334D01*
X0046518Y0176736D02*
X0024511Y0176736D01*
X0024154Y0175137D02*
X0046518Y0175137D01*
X0046518Y0173539D02*
X0024102Y0173539D01*
X0024102Y0171940D02*
X0046518Y0171940D01*
X0046720Y0170342D02*
X0024102Y0170342D01*
X0025134Y0168743D02*
X0043369Y0168743D01*
X0042255Y0167145D02*
X0026733Y0167145D01*
X0028039Y0165546D02*
X0042297Y0165546D01*
X0043599Y0163948D02*
X0028039Y0163948D01*
X0028371Y0162349D02*
X0033744Y0162349D01*
X0032654Y0160751D02*
X0029461Y0160751D01*
X0029648Y0159152D02*
X0032467Y0159152D01*
X0033013Y0157554D02*
X0030891Y0157554D01*
X0026886Y0155955D02*
X0017747Y0155955D01*
X0019511Y0157554D02*
X0023013Y0157554D01*
X0022467Y0159152D02*
X0020050Y0159152D01*
X0019904Y0160751D02*
X0022654Y0160751D01*
X0013165Y0162349D02*
X0011110Y0162349D01*
X0011110Y0160751D02*
X0012211Y0160751D01*
X0012065Y0159152D02*
X0011110Y0159152D01*
X0011110Y0157554D02*
X0012604Y0157554D01*
X0011110Y0136773D02*
X0045730Y0136773D01*
X0045829Y0135175D02*
X0043275Y0135175D01*
X0043275Y0133576D02*
X0045829Y0133576D01*
X0045419Y0138372D02*
X0042253Y0138372D01*
X0043684Y0139970D02*
X0049692Y0139970D01*
X0050652Y0139970D02*
X0058329Y0139970D01*
X0058329Y0138372D02*
X0054925Y0138372D01*
X0054614Y0136773D02*
X0058329Y0136773D01*
X0058329Y0135175D02*
X0054515Y0135175D01*
X0054515Y0133576D02*
X0058329Y0133576D01*
X0058329Y0131978D02*
X0054515Y0131978D01*
X0054515Y0130379D02*
X0058329Y0130379D01*
X0058509Y0128781D02*
X0055845Y0128781D01*
X0058538Y0127842D02*
X0058538Y0123089D01*
X0058538Y0123089D01*
X0058538Y0118336D01*
X0058538Y0123089D01*
X0058538Y0123089D01*
X0058538Y0127842D01*
X0058538Y0127182D02*
X0058538Y0127182D01*
X0058538Y0125584D02*
X0058538Y0125584D01*
X0058538Y0123985D02*
X0058538Y0123985D01*
X0058538Y0122387D02*
X0058538Y0122387D01*
X0058538Y0120788D02*
X0058538Y0120788D01*
X0058538Y0119190D02*
X0058538Y0119190D01*
X0065460Y0130976D02*
X0064653Y0131784D01*
X0064653Y0159540D01*
X0061943Y0162250D01*
X0065992Y0162250D01*
X0065927Y0161666D01*
X0066006Y0161568D01*
X0066006Y0161442D01*
X0066508Y0160939D01*
X0067568Y0159615D01*
X0067568Y0158756D01*
X0067991Y0157734D01*
X0068774Y0156952D01*
X0069796Y0156529D01*
X0070902Y0156529D01*
X0071321Y0156702D01*
X0071321Y0131784D01*
X0070513Y0130976D01*
X0070768Y0131591D01*
X0070768Y0132698D01*
X0070345Y0133720D01*
X0069562Y0134502D01*
X0068540Y0134925D01*
X0067434Y0134925D01*
X0066412Y0134502D01*
X0065629Y0133720D01*
X0065206Y0132698D01*
X0065206Y0131591D01*
X0065460Y0130976D01*
X0065206Y0131978D02*
X0064653Y0131978D01*
X0064653Y0133576D02*
X0065570Y0133576D01*
X0064653Y0135175D02*
X0071321Y0135175D01*
X0071321Y0136773D02*
X0064653Y0136773D01*
X0064653Y0138372D02*
X0071321Y0138372D01*
X0071321Y0139970D02*
X0064653Y0139970D01*
X0064653Y0141569D02*
X0071321Y0141569D01*
X0071321Y0143167D02*
X0064653Y0143167D01*
X0064653Y0144766D02*
X0071321Y0144766D01*
X0071321Y0146364D02*
X0064653Y0146364D01*
X0064653Y0147963D02*
X0071321Y0147963D01*
X0071321Y0149561D02*
X0064653Y0149561D01*
X0064653Y0151160D02*
X0071321Y0151160D01*
X0071321Y0152758D02*
X0064653Y0152758D01*
X0064653Y0154357D02*
X0071321Y0154357D01*
X0071321Y0155955D02*
X0064653Y0155955D01*
X0064653Y0157554D02*
X0068172Y0157554D01*
X0067568Y0159152D02*
X0064653Y0159152D01*
X0063442Y0160751D02*
X0066659Y0160751D01*
X0058329Y0155955D02*
X0046765Y0155955D01*
X0045166Y0154357D02*
X0058329Y0154357D01*
X0057492Y0157554D02*
X0048363Y0157554D01*
X0045957Y0160751D02*
X0039461Y0160751D01*
X0039648Y0159152D02*
X0044359Y0159152D01*
X0042760Y0157554D02*
X0039103Y0157554D01*
X0038371Y0162349D02*
X0047233Y0162349D01*
X0046518Y0163948D02*
X0046312Y0163948D01*
X0053642Y0160751D02*
X0054295Y0160751D01*
X0053317Y0159152D02*
X0055894Y0159152D01*
X0054920Y0143167D02*
X0058329Y0143167D01*
X0058329Y0141569D02*
X0054925Y0141569D01*
X0050651Y0141569D02*
X0049692Y0141569D01*
X0049692Y0143167D02*
X0050651Y0143167D01*
X0039707Y0141569D02*
X0038551Y0141569D01*
X0038551Y0139970D02*
X0039707Y0139970D01*
X0039707Y0138372D02*
X0038551Y0138372D01*
X0070404Y0133576D02*
X0071321Y0133576D01*
X0071321Y0131978D02*
X0070768Y0131978D01*
X0076526Y0127842D02*
X0077576Y0128892D01*
X0077992Y0127888D01*
X0078038Y0127842D01*
X0077436Y0127842D01*
X0077436Y0123089D01*
X0077436Y0118336D01*
X0077436Y0123089D01*
X0077436Y0123089D01*
X0077436Y0123089D01*
X0077436Y0127842D01*
X0076526Y0127842D01*
X0077436Y0127182D02*
X0077436Y0127182D01*
X0077436Y0125584D02*
X0077436Y0125584D01*
X0077436Y0123985D02*
X0077436Y0123985D01*
X0077436Y0122387D02*
X0077436Y0122387D01*
X0077436Y0120788D02*
X0077436Y0120788D01*
X0077436Y0119190D02*
X0077436Y0119190D01*
X0085739Y0119190D02*
X0087512Y0119190D01*
X0086110Y0120788D02*
X0089111Y0120788D01*
X0090362Y0122387D02*
X0090709Y0122387D01*
X0091960Y0123985D02*
X0092308Y0123985D01*
X0093559Y0125584D02*
X0093906Y0125584D01*
X0094677Y0127182D02*
X0095505Y0127182D01*
X0095753Y0128781D02*
X0097103Y0128781D01*
X0096047Y0130379D02*
X0151242Y0130379D01*
X0151242Y0128781D02*
X0116466Y0128781D01*
X0121177Y0127182D02*
X0151242Y0127182D01*
X0151242Y0125584D02*
X0122776Y0125584D01*
X0124374Y0123985D02*
X0151242Y0123985D01*
X0151242Y0122387D02*
X0125973Y0122387D01*
X0127571Y0120788D02*
X0151242Y0120788D01*
X0151242Y0119190D02*
X0129170Y0119190D01*
X0130769Y0117591D02*
X0151242Y0117591D01*
X0151242Y0115993D02*
X0132367Y0115993D01*
X0133966Y0114394D02*
X0151242Y0114394D01*
X0151242Y0112796D02*
X0135564Y0112796D01*
X0137163Y0111197D02*
X0151242Y0111197D01*
X0151242Y0111082D02*
X0153421Y0108903D01*
X0156176Y0106148D01*
X0161439Y0100885D01*
X0161439Y0098296D01*
X0161344Y0098257D01*
X0160118Y0097031D01*
X0159455Y0095429D01*
X0159455Y0087758D01*
X0160118Y0086155D01*
X0161344Y0084929D01*
X0162947Y0084266D01*
X0164681Y0084266D01*
X0166283Y0084929D01*
X0167509Y0086155D01*
X0168173Y0087758D01*
X0168173Y0095429D01*
X0167509Y0097031D01*
X0166283Y0098257D01*
X0166188Y0098296D01*
X0166188Y0102852D01*
X0159535Y0109506D01*
X0156779Y0112262D01*
X0155992Y0113049D01*
X0155992Y0140596D01*
X0157146Y0140596D01*
X0157960Y0141411D01*
X0157960Y0147681D01*
X0157355Y0148286D01*
X0157960Y0148891D01*
X0157960Y0149651D01*
X0167905Y0149651D01*
X0168612Y0147012D01*
X0169987Y0144631D01*
X0171931Y0142687D01*
X0174311Y0141313D01*
X0176967Y0140601D01*
X0179716Y0140601D01*
X0182371Y0141313D01*
X0184752Y0142687D01*
X0186696Y0144631D01*
X0188070Y0147012D01*
X0188782Y0149667D01*
X0188782Y0152417D01*
X0188070Y0155072D01*
X0186696Y0157453D01*
X0184752Y0159397D01*
X0182371Y0160771D01*
X0179716Y0161483D01*
X0176967Y0161483D01*
X0174311Y0160771D01*
X0171931Y0159397D01*
X0169987Y0157453D01*
X0168612Y0155072D01*
X0168432Y0154401D01*
X0157960Y0154401D01*
X0157960Y0155161D01*
X0157146Y0155976D01*
X0150088Y0155976D01*
X0149273Y0155161D01*
X0149273Y0148891D01*
X0149879Y0148286D01*
X0149273Y0147681D01*
X0149273Y0141411D01*
X0150088Y0140596D01*
X0151242Y0140596D01*
X0151242Y0111082D01*
X0152725Y0109599D02*
X0138761Y0109599D01*
X0140360Y0108000D02*
X0154324Y0108000D01*
X0155922Y0106401D02*
X0141958Y0106401D01*
X0143381Y0104803D02*
X0157521Y0104803D01*
X0159119Y0103204D02*
X0143381Y0103204D01*
X0143381Y0101606D02*
X0160718Y0101606D01*
X0161439Y0100007D02*
X0143381Y0100007D01*
X0143381Y0098409D02*
X0161439Y0098409D01*
X0160027Y0096810D02*
X0143381Y0096810D01*
X0143381Y0095212D02*
X0159455Y0095212D01*
X0159455Y0093613D02*
X0143381Y0093613D01*
X0143381Y0092015D02*
X0159455Y0092015D01*
X0159455Y0090416D02*
X0143381Y0090416D01*
X0143381Y0088818D02*
X0159455Y0088818D01*
X0159678Y0087219D02*
X0143381Y0087219D01*
X0143381Y0085621D02*
X0160653Y0085621D01*
X0166974Y0085621D02*
X0170653Y0085621D01*
X0170118Y0086155D02*
X0171344Y0084929D01*
X0172947Y0084266D01*
X0174681Y0084266D01*
X0176283Y0084929D01*
X0177509Y0086155D01*
X0178173Y0087758D01*
X0178173Y0095429D01*
X0177509Y0097031D01*
X0176283Y0098257D01*
X0174681Y0098921D01*
X0172947Y0098921D01*
X0171344Y0098257D01*
X0170118Y0097031D01*
X0169455Y0095429D01*
X0169455Y0087758D01*
X0170118Y0086155D01*
X0169678Y0087219D02*
X0167950Y0087219D01*
X0168173Y0088818D02*
X0169455Y0088818D01*
X0169455Y0090416D02*
X0168173Y0090416D01*
X0168173Y0092015D02*
X0169455Y0092015D01*
X0169455Y0093613D02*
X0168173Y0093613D01*
X0168173Y0095212D02*
X0169455Y0095212D01*
X0170027Y0096810D02*
X0167600Y0096810D01*
X0166188Y0098409D02*
X0171711Y0098409D01*
X0175916Y0098409D02*
X0181711Y0098409D01*
X0181344Y0098257D02*
X0182947Y0098921D01*
X0184681Y0098921D01*
X0186283Y0098257D01*
X0187509Y0097031D01*
X0188173Y0095429D01*
X0188173Y0087758D01*
X0187509Y0086155D01*
X0186283Y0084929D01*
X0184681Y0084266D01*
X0182947Y0084266D01*
X0181344Y0084929D01*
X0180118Y0086155D01*
X0179455Y0087758D01*
X0179455Y0095429D01*
X0180118Y0097031D01*
X0181344Y0098257D01*
X0180027Y0096810D02*
X0177600Y0096810D01*
X0178173Y0095212D02*
X0179455Y0095212D01*
X0179455Y0093613D02*
X0178173Y0093613D01*
X0178173Y0092015D02*
X0179455Y0092015D01*
X0179455Y0090416D02*
X0178173Y0090416D01*
X0178173Y0088818D02*
X0179455Y0088818D01*
X0179678Y0087219D02*
X0177950Y0087219D01*
X0176974Y0085621D02*
X0180653Y0085621D01*
X0186974Y0085621D02*
X0190653Y0085621D01*
X0190118Y0086155D02*
X0191344Y0084929D01*
X0192947Y0084266D01*
X0194681Y0084266D01*
X0196283Y0084929D01*
X0197509Y0086155D01*
X0198173Y0087758D01*
X0198173Y0095429D01*
X0197509Y0097031D01*
X0196283Y0098257D01*
X0196188Y0098296D01*
X0196188Y0158367D01*
X0196242Y0158427D01*
X0196188Y0159340D01*
X0196188Y0160254D01*
X0196131Y0160311D01*
X0196127Y0160391D01*
X0195444Y0160999D01*
X0194797Y0161645D01*
X0194717Y0161645D01*
X0181231Y0173637D01*
X0180585Y0174283D01*
X0180504Y0174283D01*
X0180444Y0174336D01*
X0179531Y0174283D01*
X0172711Y0174283D01*
X0168590Y0178404D01*
X0167199Y0179795D01*
X0156750Y0179795D01*
X0155980Y0180565D01*
X0154957Y0180988D01*
X0153851Y0180988D01*
X0152829Y0180565D01*
X0152046Y0179783D01*
X0151623Y0178761D01*
X0151623Y0177654D01*
X0152046Y0176632D01*
X0152829Y0175850D01*
X0153810Y0175443D01*
X0154208Y0175045D01*
X0165232Y0175045D01*
X0170743Y0169533D01*
X0178698Y0169533D01*
X0191439Y0158204D01*
X0191439Y0098296D01*
X0191344Y0098257D01*
X0190118Y0097031D01*
X0189455Y0095429D01*
X0189455Y0087758D01*
X0190118Y0086155D01*
X0189678Y0087219D02*
X0187950Y0087219D01*
X0188173Y0088818D02*
X0189455Y0088818D01*
X0189455Y0090416D02*
X0188173Y0090416D01*
X0188173Y0092015D02*
X0189455Y0092015D01*
X0189455Y0093613D02*
X0188173Y0093613D01*
X0188173Y0095212D02*
X0189455Y0095212D01*
X0190027Y0096810D02*
X0187600Y0096810D01*
X0185916Y0098409D02*
X0191439Y0098409D01*
X0191439Y0100007D02*
X0166188Y0100007D01*
X0166188Y0101606D02*
X0191439Y0101606D01*
X0191439Y0103204D02*
X0165836Y0103204D01*
X0164238Y0104803D02*
X0191439Y0104803D01*
X0191439Y0106401D02*
X0162639Y0106401D01*
X0161041Y0108000D02*
X0191439Y0108000D01*
X0191439Y0109599D02*
X0159442Y0109599D01*
X0157844Y0111197D02*
X0191439Y0111197D01*
X0191439Y0112796D02*
X0156245Y0112796D01*
X0155992Y0114394D02*
X0191439Y0114394D01*
X0191439Y0115993D02*
X0155992Y0115993D01*
X0155992Y0117591D02*
X0191439Y0117591D01*
X0191439Y0119190D02*
X0155992Y0119190D01*
X0155992Y0120788D02*
X0191439Y0120788D01*
X0191439Y0122387D02*
X0155992Y0122387D01*
X0155992Y0123985D02*
X0191439Y0123985D01*
X0191439Y0125584D02*
X0155992Y0125584D01*
X0155992Y0127182D02*
X0191439Y0127182D01*
X0191439Y0128781D02*
X0155992Y0128781D01*
X0155992Y0130379D02*
X0191439Y0130379D01*
X0191439Y0131978D02*
X0155992Y0131978D01*
X0155992Y0133576D02*
X0191439Y0133576D01*
X0191439Y0135175D02*
X0155992Y0135175D01*
X0155992Y0136773D02*
X0191439Y0136773D01*
X0191439Y0138372D02*
X0155992Y0138372D01*
X0155992Y0139970D02*
X0191439Y0139970D01*
X0191439Y0141569D02*
X0182814Y0141569D01*
X0185232Y0143167D02*
X0191439Y0143167D01*
X0191439Y0144766D02*
X0186773Y0144766D01*
X0187696Y0146364D02*
X0191439Y0146364D01*
X0191439Y0147963D02*
X0188325Y0147963D01*
X0188753Y0149561D02*
X0191439Y0149561D01*
X0191439Y0151160D02*
X0188782Y0151160D01*
X0188690Y0152758D02*
X0191439Y0152758D01*
X0191439Y0154357D02*
X0188262Y0154357D01*
X0187560Y0155955D02*
X0191439Y0155955D01*
X0191439Y0157554D02*
X0186595Y0157554D01*
X0184996Y0159152D02*
X0190372Y0159152D01*
X0188575Y0160751D02*
X0182406Y0160751D01*
X0184979Y0163948D02*
X0132779Y0163948D01*
X0132779Y0164145D02*
X0132779Y0161829D01*
X0132656Y0161371D01*
X0132419Y0160960D01*
X0132084Y0160625D01*
X0131674Y0160388D01*
X0131216Y0160266D01*
X0128506Y0160266D01*
X0128506Y0164145D01*
X0128506Y0165104D01*
X0132779Y0165104D01*
X0132779Y0167421D01*
X0132656Y0167878D01*
X0132419Y0168289D01*
X0132084Y0168624D01*
X0132046Y0168646D01*
X0132370Y0168970D01*
X0132370Y0175240D01*
X0131555Y0176055D01*
X0131191Y0176055D01*
X0131201Y0176079D01*
X0131201Y0177186D01*
X0130778Y0178208D01*
X0129995Y0178990D01*
X0128973Y0179414D01*
X0127867Y0179414D01*
X0126845Y0178990D01*
X0126062Y0178208D01*
X0125639Y0177186D01*
X0125639Y0176079D01*
X0125649Y0176055D01*
X0124497Y0176055D01*
X0123683Y0175240D01*
X0123683Y0168970D01*
X0124007Y0168646D01*
X0123968Y0168624D01*
X0123633Y0168289D01*
X0123396Y0167878D01*
X0123273Y0167421D01*
X0123273Y0165104D01*
X0127547Y0165104D01*
X0127547Y0164145D01*
X0128506Y0164145D01*
X0132779Y0164145D01*
X0132779Y0165546D02*
X0183182Y0165546D01*
X0181384Y0167145D02*
X0132779Y0167145D01*
X0132143Y0168743D02*
X0179586Y0168743D01*
X0183139Y0171940D02*
X0215809Y0171940D01*
X0215809Y0170342D02*
X0184936Y0170342D01*
X0186734Y0168743D02*
X0215809Y0168743D01*
X0215809Y0167145D02*
X0188532Y0167145D01*
X0190329Y0165546D02*
X0215809Y0165546D01*
X0215809Y0163948D02*
X0211700Y0163948D01*
X0211700Y0164358D02*
X0210622Y0165436D01*
X0205244Y0165436D01*
X0204166Y0164358D01*
X0203960Y0164152D01*
X0203428Y0163620D01*
X0202881Y0163074D01*
X0202881Y0161549D01*
X0203403Y0161027D01*
X0202881Y0160505D01*
X0202881Y0157696D01*
X0203960Y0156617D01*
X0204344Y0156617D01*
X0203960Y0156233D01*
X0202881Y0155155D01*
X0202881Y0151061D01*
X0203680Y0150262D01*
X0203960Y0149983D01*
X0204344Y0149599D01*
X0203960Y0149599D01*
X0202881Y0148520D01*
X0202881Y0143142D01*
X0203680Y0142343D01*
X0203960Y0142064D01*
X0204445Y0141579D01*
X0205244Y0140780D01*
X0206807Y0140780D01*
X0206735Y0140708D01*
X0206735Y0137899D01*
X0207813Y0136820D01*
X0208127Y0136820D01*
X0208019Y0136713D01*
X0208019Y0136507D01*
X0201391Y0136507D01*
X0200313Y0135429D01*
X0200313Y0132619D01*
X0201391Y0131541D01*
X0202916Y0131541D01*
X0203994Y0132619D01*
X0203994Y0132826D01*
X0208019Y0132826D01*
X0208019Y0132619D01*
X0208197Y0132441D01*
X0205244Y0132441D01*
X0204166Y0131363D01*
X0202881Y0130079D01*
X0202881Y0125985D01*
X0203960Y0124907D01*
X0205484Y0124907D01*
X0206006Y0125429D01*
X0206226Y0125209D01*
X0206528Y0124907D01*
X0206528Y0124907D01*
X0207037Y0124399D01*
X0207813Y0123623D01*
X0208127Y0123623D01*
X0208019Y0123515D01*
X0208019Y0123309D01*
X0203960Y0123309D01*
X0203438Y0122787D01*
X0202916Y0123309D01*
X0200106Y0123309D01*
X0199028Y0122231D01*
X0199028Y0120706D01*
X0200106Y0119628D01*
X0202881Y0119628D01*
X0202881Y0119422D01*
X0203960Y0118343D01*
X0204344Y0118343D01*
X0204166Y0118165D01*
X0203960Y0117959D01*
X0203960Y0117959D01*
X0203428Y0117428D01*
X0202881Y0116881D01*
X0202881Y0115356D01*
X0203403Y0114834D01*
X0202881Y0114312D01*
X0202881Y0111503D01*
X0203510Y0110875D01*
X0202881Y0110246D01*
X0202881Y0104868D01*
X0203680Y0104069D01*
X0203960Y0103790D01*
X0204344Y0103406D01*
X0202675Y0103406D01*
X0200313Y0101043D01*
X0200313Y0096950D01*
X0201089Y0096174D01*
X0201391Y0095872D01*
X0201899Y0095363D01*
X0202675Y0094587D01*
X0203024Y0094587D01*
X0202881Y0094444D01*
X0202881Y0091635D01*
X0203403Y0091113D01*
X0202881Y0090591D01*
X0202881Y0089066D01*
X0203960Y0087988D01*
X0204344Y0087988D01*
X0204166Y0087810D01*
X0202881Y0086526D01*
X0202881Y0082432D01*
X0203960Y0081354D01*
X0205484Y0081354D01*
X0206006Y0081876D01*
X0206226Y0081656D01*
X0206528Y0081354D01*
X0206528Y0081354D01*
X0207037Y0080845D01*
X0207813Y0080069D01*
X0208251Y0080069D01*
X0207291Y0078629D01*
X0205831Y0080820D01*
X0204335Y0081119D01*
X0203067Y0080273D01*
X0202768Y0078778D01*
X0203852Y0077151D01*
X0201391Y0077151D01*
X0200313Y0076073D01*
X0200313Y0074549D01*
X0201391Y0073470D01*
X0204344Y0073470D01*
X0204166Y0073292D01*
X0202881Y0072008D01*
X0202881Y0067914D01*
X0203658Y0067138D01*
X0203960Y0066836D01*
X0204344Y0066452D01*
X0201391Y0066452D01*
X0200313Y0065374D01*
X0200313Y0063849D01*
X0201391Y0062771D01*
X0202881Y0062771D01*
X0202881Y0059995D01*
X0203658Y0059219D01*
X0203960Y0058917D01*
X0204468Y0058409D01*
X0205244Y0057633D01*
X0206807Y0057633D01*
X0206735Y0057561D01*
X0206735Y0054752D01*
X0206913Y0054574D01*
X0205244Y0054574D01*
X0204166Y0053495D01*
X0202881Y0052211D01*
X0202881Y0046833D01*
X0203960Y0045755D01*
X0204344Y0045755D01*
X0203960Y0045370D01*
X0202881Y0044292D01*
X0202881Y0040199D01*
X0203680Y0039400D01*
X0203960Y0039120D01*
X0204309Y0038771D01*
X0203960Y0038771D01*
X0202881Y0037693D01*
X0202881Y0034884D01*
X0203403Y0034362D01*
X0202881Y0033840D01*
X0202881Y0032315D01*
X0203960Y0031237D01*
X0204344Y0031237D01*
X0203960Y0030853D01*
X0202881Y0029774D01*
X0202881Y0025681D01*
X0203680Y0024882D01*
X0203960Y0024603D01*
X0204344Y0024218D01*
X0203960Y0024218D01*
X0202881Y0023140D01*
X0202881Y0017762D01*
X0203680Y0016963D01*
X0203960Y0016684D01*
X0204445Y0016198D01*
X0205244Y0015399D01*
X0209338Y0015399D01*
X0210622Y0016684D01*
X0211700Y0017762D01*
X0211700Y0017968D01*
X0213191Y0017968D01*
X0214269Y0019046D01*
X0214269Y0021856D01*
X0212985Y0023140D01*
X0211907Y0024218D01*
X0210238Y0024218D01*
X0211700Y0025681D01*
X0211700Y0029774D01*
X0210924Y0030551D01*
X0210416Y0031059D01*
X0210238Y0031237D01*
X0210622Y0031237D01*
X0211700Y0032315D01*
X0211700Y0033840D01*
X0210622Y0034918D01*
X0208053Y0034918D01*
X0206563Y0036409D01*
X0206563Y0037693D01*
X0206420Y0037836D01*
X0209338Y0037836D01*
X0211700Y0040199D01*
X0211700Y0044292D01*
X0210924Y0045068D01*
X0210416Y0045577D01*
X0210238Y0045755D01*
X0210622Y0045755D01*
X0211700Y0046833D01*
X0211700Y0048358D01*
X0210622Y0049436D01*
X0206563Y0049436D01*
X0206563Y0050686D01*
X0206769Y0050892D01*
X0210622Y0050892D01*
X0211700Y0051971D01*
X0211700Y0053495D01*
X0211072Y0054124D01*
X0211700Y0054752D01*
X0211700Y0057561D01*
X0210622Y0058639D01*
X0210344Y0058639D01*
X0210416Y0058711D01*
X0211700Y0059995D01*
X0211700Y0065374D01*
X0210622Y0066452D01*
X0210238Y0066452D01*
X0210416Y0066630D01*
X0211700Y0067914D01*
X0211700Y0072008D01*
X0210622Y0073086D01*
X0209131Y0073086D01*
X0209131Y0073292D01*
X0208953Y0073470D01*
X0210622Y0073470D01*
X0211700Y0074549D01*
X0211700Y0076073D01*
X0210687Y0077087D01*
X0211814Y0078778D01*
X0211515Y0080273D01*
X0210331Y0081062D01*
X0211700Y0082432D01*
X0211700Y0087810D01*
X0211072Y0088438D01*
X0211700Y0089066D01*
X0211700Y0090591D01*
X0210622Y0091669D01*
X0208053Y0091669D01*
X0206563Y0093160D01*
X0206563Y0094444D01*
X0206420Y0094587D01*
X0209338Y0094587D01*
X0210416Y0095665D01*
X0211700Y0096950D01*
X0211700Y0101043D01*
X0210901Y0101842D01*
X0209788Y0102956D01*
X0210622Y0103790D01*
X0211700Y0104868D01*
X0211700Y0105075D01*
X0213191Y0105075D01*
X0214269Y0106153D01*
X0214269Y0108962D01*
X0212985Y0110246D01*
X0211907Y0111325D01*
X0211522Y0111325D01*
X0211700Y0111503D01*
X0211700Y0113028D01*
X0211178Y0113550D01*
X0211700Y0114072D01*
X0211700Y0115596D01*
X0211178Y0116118D01*
X0211700Y0116640D01*
X0211700Y0118165D01*
X0211072Y0118793D01*
X0211700Y0119422D01*
X0211700Y0123515D01*
X0210622Y0124593D01*
X0210308Y0124593D01*
X0211700Y0125985D01*
X0211700Y0131363D01*
X0211072Y0131991D01*
X0211700Y0132619D01*
X0211700Y0136713D01*
X0211107Y0137306D01*
X0211700Y0137899D01*
X0211700Y0140708D01*
X0210622Y0141786D01*
X0210344Y0141786D01*
X0210622Y0142064D01*
X0211700Y0143142D01*
X0211700Y0148520D01*
X0210622Y0149599D01*
X0210238Y0149599D01*
X0211700Y0151061D01*
X0211700Y0152586D01*
X0211700Y0153630D01*
X0211700Y0155155D01*
X0210924Y0155931D01*
X0210416Y0156439D01*
X0210416Y0156439D01*
X0210238Y0156617D01*
X0210622Y0156617D01*
X0211700Y0157696D01*
X0211700Y0159220D01*
X0211178Y0159742D01*
X0211700Y0160264D01*
X0211700Y0161789D01*
X0211178Y0162311D01*
X0211700Y0162833D01*
X0211700Y0164358D01*
X0211216Y0162349D02*
X0215809Y0162349D01*
X0215809Y0160751D02*
X0211700Y0160751D01*
X0211700Y0159152D02*
X0215809Y0159152D01*
X0215809Y0157554D02*
X0211559Y0157554D01*
X0210900Y0155955D02*
X0215809Y0155955D01*
X0215809Y0154357D02*
X0211700Y0154357D01*
X0211700Y0152758D02*
X0215809Y0152758D01*
X0215809Y0151160D02*
X0211700Y0151160D01*
X0210659Y0149561D02*
X0215809Y0149561D01*
X0215809Y0147963D02*
X0211700Y0147963D01*
X0211700Y0146364D02*
X0215809Y0146364D01*
X0215809Y0144766D02*
X0211700Y0144766D01*
X0211700Y0143167D02*
X0215809Y0143167D01*
X0215809Y0141569D02*
X0210839Y0141569D01*
X0211700Y0139970D02*
X0215809Y0139970D01*
X0215809Y0138372D02*
X0211700Y0138372D01*
X0211640Y0136773D02*
X0215809Y0136773D01*
X0215809Y0135175D02*
X0211700Y0135175D01*
X0211700Y0133576D02*
X0215809Y0133576D01*
X0215809Y0131978D02*
X0211086Y0131978D01*
X0211700Y0130379D02*
X0215809Y0130379D01*
X0215809Y0128781D02*
X0211700Y0128781D01*
X0211700Y0127182D02*
X0215809Y0127182D01*
X0215809Y0125584D02*
X0211299Y0125584D01*
X0211230Y0123985D02*
X0215809Y0123985D01*
X0215809Y0122387D02*
X0211700Y0122387D01*
X0211700Y0120788D02*
X0215809Y0120788D01*
X0215809Y0119190D02*
X0211468Y0119190D01*
X0211700Y0117591D02*
X0215809Y0117591D01*
X0215809Y0115993D02*
X0211304Y0115993D01*
X0211700Y0114394D02*
X0215809Y0114394D01*
X0215809Y0112796D02*
X0211700Y0112796D01*
X0212034Y0111197D02*
X0215809Y0111197D01*
X0215809Y0109599D02*
X0213633Y0109599D01*
X0214269Y0108000D02*
X0215809Y0108000D01*
X0215809Y0106401D02*
X0214269Y0106401D01*
X0215809Y0104803D02*
X0211635Y0104803D01*
X0210036Y0103204D02*
X0215809Y0103204D01*
X0215809Y0101606D02*
X0211138Y0101606D01*
X0211700Y0100007D02*
X0215809Y0100007D01*
X0215809Y0098409D02*
X0211700Y0098409D01*
X0211561Y0096810D02*
X0215809Y0096810D01*
X0215809Y0095212D02*
X0209962Y0095212D01*
X0206563Y0093613D02*
X0215809Y0093613D01*
X0215809Y0092015D02*
X0207708Y0092015D01*
X0211700Y0090416D02*
X0215809Y0090416D01*
X0215809Y0088818D02*
X0211452Y0088818D01*
X0211700Y0087219D02*
X0215809Y0087219D01*
X0215809Y0085621D02*
X0211700Y0085621D01*
X0211700Y0084022D02*
X0215809Y0084022D01*
X0215809Y0082424D02*
X0211692Y0082424D01*
X0210686Y0080825D02*
X0215809Y0080825D01*
X0215809Y0079227D02*
X0211724Y0079227D01*
X0211048Y0077628D02*
X0215809Y0077628D01*
X0215809Y0076030D02*
X0211700Y0076030D01*
X0211583Y0074431D02*
X0215809Y0074431D01*
X0215809Y0072833D02*
X0210875Y0072833D01*
X0211700Y0071234D02*
X0215809Y0071234D01*
X0215809Y0069636D02*
X0211700Y0069636D01*
X0211700Y0068037D02*
X0215809Y0068037D01*
X0215809Y0066439D02*
X0210635Y0066439D01*
X0211700Y0064840D02*
X0215809Y0064840D01*
X0215809Y0063242D02*
X0211700Y0063242D01*
X0211700Y0061643D02*
X0215809Y0061643D01*
X0215809Y0060045D02*
X0211700Y0060045D01*
X0210815Y0058446D02*
X0215809Y0058446D01*
X0215809Y0056848D02*
X0211700Y0056848D01*
X0211700Y0055249D02*
X0215809Y0055249D01*
X0215809Y0053651D02*
X0211545Y0053651D01*
X0211700Y0052052D02*
X0215809Y0052052D01*
X0215809Y0050454D02*
X0206563Y0050454D01*
X0204321Y0053651D02*
X0195165Y0053651D01*
X0195165Y0054815D02*
X0194537Y0055443D01*
X0195165Y0056071D01*
X0195165Y0062734D01*
X0194087Y0063812D01*
X0193702Y0063812D01*
X0193880Y0063990D01*
X0195165Y0065275D01*
X0195165Y0069368D01*
X0194366Y0070167D01*
X0193880Y0070653D01*
X0193601Y0070932D01*
X0193252Y0071281D01*
X0193880Y0071909D01*
X0195165Y0073193D01*
X0195165Y0077287D01*
X0194366Y0078086D01*
X0193880Y0078571D01*
X0193601Y0078851D01*
X0192802Y0079650D01*
X0186140Y0079650D01*
X0185062Y0078571D01*
X0184855Y0078365D01*
X0183777Y0077287D01*
X0183777Y0073193D01*
X0184553Y0072417D01*
X0184855Y0072115D01*
X0184855Y0072115D01*
X0185364Y0071607D01*
X0185690Y0071281D01*
X0185062Y0070653D01*
X0183777Y0069368D01*
X0183777Y0065275D01*
X0184553Y0064499D01*
X0184855Y0064196D01*
X0184855Y0064196D01*
X0185364Y0063688D01*
X0185690Y0063362D01*
X0184855Y0062528D01*
X0183777Y0061449D01*
X0183777Y0057356D01*
X0184576Y0056557D01*
X0184855Y0056278D01*
X0184855Y0056278D01*
X0186140Y0054993D01*
X0187665Y0054993D01*
X0188743Y0056071D01*
X0188743Y0057596D01*
X0187458Y0058881D01*
X0187458Y0059925D01*
X0187544Y0060011D01*
X0192112Y0055443D01*
X0191484Y0054815D01*
X0191484Y0053324D01*
X0184855Y0053324D01*
X0183777Y0052246D01*
X0183777Y0050722D01*
X0184855Y0049643D01*
X0186524Y0047975D01*
X0186140Y0047975D01*
X0184855Y0046690D01*
X0183777Y0045612D01*
X0183777Y0041518D01*
X0184576Y0040719D01*
X0184855Y0040440D01*
X0184855Y0040440D01*
X0185341Y0039955D01*
X0185690Y0039606D01*
X0184855Y0038771D01*
X0183777Y0037693D01*
X0183777Y0033600D01*
X0184576Y0032801D01*
X0184855Y0032521D01*
X0185690Y0031687D01*
X0184855Y0030853D01*
X0183777Y0029774D01*
X0183777Y0024396D01*
X0184855Y0023318D01*
X0186524Y0023318D01*
X0186346Y0023140D01*
X0183777Y0020571D01*
X0183777Y0019046D01*
X0184855Y0017968D01*
X0187424Y0015399D01*
X0190233Y0015399D01*
X0194087Y0015399D01*
X0195165Y0016478D01*
X0195165Y0018002D01*
X0194087Y0019081D01*
X0191312Y0019081D01*
X0191312Y0020537D01*
X0194087Y0020537D01*
X0195165Y0021615D01*
X0195165Y0023140D01*
X0194537Y0023768D01*
X0195165Y0024396D01*
X0195165Y0029774D01*
X0194389Y0030551D01*
X0193880Y0031059D01*
X0193702Y0031237D01*
X0194087Y0031237D01*
X0195165Y0032315D01*
X0195165Y0038978D01*
X0194087Y0040056D01*
X0193702Y0040056D01*
X0195165Y0041518D01*
X0195165Y0045612D01*
X0194366Y0046411D01*
X0193880Y0046896D01*
X0193702Y0047075D01*
X0194087Y0047075D01*
X0195165Y0048153D01*
X0195165Y0054815D01*
X0194731Y0055249D02*
X0206735Y0055249D01*
X0206735Y0056848D02*
X0195165Y0056848D01*
X0195165Y0058446D02*
X0204431Y0058446D01*
X0203960Y0058917D02*
X0203960Y0058917D01*
X0202881Y0060045D02*
X0195165Y0060045D01*
X0195165Y0061643D02*
X0202881Y0061643D01*
X0200920Y0063242D02*
X0194657Y0063242D01*
X0194730Y0064840D02*
X0200313Y0064840D01*
X0201378Y0066439D02*
X0195165Y0066439D01*
X0195165Y0068037D02*
X0202881Y0068037D01*
X0202881Y0069636D02*
X0194897Y0069636D01*
X0193880Y0070653D02*
X0193880Y0070653D01*
X0193299Y0071234D02*
X0202881Y0071234D01*
X0203706Y0072833D02*
X0194804Y0072833D01*
X0193880Y0071909D02*
X0193880Y0071909D01*
X0195165Y0074431D02*
X0200430Y0074431D01*
X0200313Y0076030D02*
X0195165Y0076030D01*
X0194824Y0077628D02*
X0203534Y0077628D01*
X0202858Y0079227D02*
X0193225Y0079227D01*
X0193880Y0078571D02*
X0193880Y0078571D01*
X0196974Y0085621D02*
X0202881Y0085621D01*
X0202881Y0084022D02*
X0143381Y0084022D01*
X0143381Y0082424D02*
X0202890Y0082424D01*
X0203896Y0080825D02*
X0143381Y0080825D01*
X0143381Y0079227D02*
X0185717Y0079227D01*
X0185062Y0078571D02*
X0185062Y0078571D01*
X0184855Y0078365D02*
X0184855Y0078365D01*
X0184118Y0077628D02*
X0143381Y0077628D01*
X0144771Y0076030D02*
X0183777Y0076030D01*
X0183777Y0074431D02*
X0146369Y0074431D01*
X0147968Y0072833D02*
X0184138Y0072833D01*
X0185643Y0071234D02*
X0149566Y0071234D01*
X0151165Y0069636D02*
X0184045Y0069636D01*
X0183777Y0068037D02*
X0152763Y0068037D01*
X0154362Y0066439D02*
X0183777Y0066439D01*
X0184212Y0064840D02*
X0155960Y0064840D01*
X0157559Y0063242D02*
X0185569Y0063242D01*
X0183971Y0061643D02*
X0159157Y0061643D01*
X0160756Y0060045D02*
X0183777Y0060045D01*
X0183777Y0058446D02*
X0162354Y0058446D01*
X0163953Y0056848D02*
X0184285Y0056848D01*
X0185884Y0055249D02*
X0165551Y0055249D01*
X0167150Y0053651D02*
X0191484Y0053651D01*
X0191918Y0055249D02*
X0187920Y0055249D01*
X0188743Y0056848D02*
X0190708Y0056848D01*
X0189109Y0058446D02*
X0187893Y0058446D01*
X0183777Y0052052D02*
X0168748Y0052052D01*
X0170347Y0050454D02*
X0184045Y0050454D01*
X0185644Y0048855D02*
X0170940Y0048855D01*
X0170940Y0047257D02*
X0185422Y0047257D01*
X0183823Y0045658D02*
X0170940Y0045658D01*
X0170940Y0044060D02*
X0183777Y0044060D01*
X0183777Y0042461D02*
X0170940Y0042461D01*
X0170940Y0040863D02*
X0184433Y0040863D01*
X0185348Y0039264D02*
X0170940Y0039264D01*
X0170940Y0037666D02*
X0183777Y0037666D01*
X0184855Y0038771D02*
X0184855Y0038771D01*
X0183777Y0036067D02*
X0170940Y0036067D01*
X0170940Y0034468D02*
X0183777Y0034468D01*
X0184507Y0032870D02*
X0170940Y0032870D01*
X0170940Y0031271D02*
X0185274Y0031271D01*
X0184855Y0032521D02*
X0184855Y0032521D01*
X0183777Y0029673D02*
X0170940Y0029673D01*
X0170940Y0028074D02*
X0183777Y0028074D01*
X0183777Y0026476D02*
X0170940Y0026476D01*
X0170940Y0024877D02*
X0183777Y0024877D01*
X0186485Y0023279D02*
X0170940Y0023279D01*
X0170940Y0021680D02*
X0184886Y0021680D01*
X0183777Y0020082D02*
X0170940Y0020082D01*
X0170940Y0018483D02*
X0184340Y0018483D01*
X0185939Y0016885D02*
X0170940Y0016885D01*
X0170940Y0015286D02*
X0215809Y0015286D01*
X0215809Y0013688D02*
X0170940Y0013688D01*
X0170940Y0012089D02*
X0215809Y0012089D01*
X0215809Y0016885D02*
X0210823Y0016885D01*
X0213706Y0018483D02*
X0215809Y0018483D01*
X0215809Y0020082D02*
X0214269Y0020082D01*
X0214269Y0021680D02*
X0215809Y0021680D01*
X0215809Y0023279D02*
X0212846Y0023279D01*
X0210897Y0024877D02*
X0215809Y0024877D01*
X0215809Y0026476D02*
X0211700Y0026476D01*
X0211700Y0028074D02*
X0215809Y0028074D01*
X0215809Y0029673D02*
X0211700Y0029673D01*
X0210416Y0031059D02*
X0210416Y0031059D01*
X0210657Y0031271D02*
X0215809Y0031271D01*
X0215809Y0032870D02*
X0211700Y0032870D01*
X0211072Y0034468D02*
X0215809Y0034468D01*
X0215809Y0036067D02*
X0206904Y0036067D01*
X0206563Y0037666D02*
X0215809Y0037666D01*
X0215809Y0039264D02*
X0210766Y0039264D01*
X0211700Y0040863D02*
X0215809Y0040863D01*
X0215809Y0042461D02*
X0211700Y0042461D01*
X0211700Y0044060D02*
X0215809Y0044060D01*
X0215809Y0045658D02*
X0210334Y0045658D01*
X0210416Y0045577D02*
X0210416Y0045577D01*
X0211700Y0047257D02*
X0215809Y0047257D01*
X0215809Y0048855D02*
X0211203Y0048855D01*
X0204247Y0045658D02*
X0195119Y0045658D01*
X0195165Y0044060D02*
X0202881Y0044060D01*
X0202881Y0042461D02*
X0195165Y0042461D01*
X0194509Y0040863D02*
X0202881Y0040863D01*
X0203816Y0039264D02*
X0194878Y0039264D01*
X0195165Y0037666D02*
X0202881Y0037666D01*
X0202881Y0036067D02*
X0195165Y0036067D01*
X0195165Y0034468D02*
X0203297Y0034468D01*
X0202881Y0032870D02*
X0195165Y0032870D01*
X0194121Y0031271D02*
X0203925Y0031271D01*
X0202881Y0029673D02*
X0195165Y0029673D01*
X0195165Y0028074D02*
X0202881Y0028074D01*
X0202881Y0026476D02*
X0195165Y0026476D01*
X0195165Y0024877D02*
X0203685Y0024877D01*
X0203960Y0024603D02*
X0203960Y0024603D01*
X0203020Y0023279D02*
X0195026Y0023279D01*
X0195165Y0021680D02*
X0202881Y0021680D01*
X0202881Y0020082D02*
X0191312Y0020082D01*
X0194684Y0018483D02*
X0202881Y0018483D01*
X0203759Y0016885D02*
X0195165Y0016885D01*
X0203960Y0016684D02*
X0203960Y0016684D01*
X0193880Y0031059D02*
X0193880Y0031059D01*
X0203960Y0039120D02*
X0203960Y0039120D01*
X0202881Y0047257D02*
X0194269Y0047257D01*
X0193880Y0046896D02*
X0193880Y0046896D01*
X0195165Y0048855D02*
X0202881Y0048855D01*
X0202881Y0050454D02*
X0195165Y0050454D01*
X0195165Y0052052D02*
X0202881Y0052052D01*
X0203960Y0066836D02*
X0203960Y0066836D01*
X0206892Y0079227D02*
X0207689Y0079227D01*
X0207057Y0080825D02*
X0205801Y0080825D01*
X0203575Y0087219D02*
X0197950Y0087219D01*
X0198173Y0088818D02*
X0203130Y0088818D01*
X0202881Y0090416D02*
X0198173Y0090416D01*
X0198173Y0092015D02*
X0202881Y0092015D01*
X0202881Y0093613D02*
X0198173Y0093613D01*
X0198173Y0095212D02*
X0202050Y0095212D01*
X0201391Y0095872D02*
X0201391Y0095872D01*
X0200452Y0096810D02*
X0197600Y0096810D01*
X0196188Y0098409D02*
X0200313Y0098409D01*
X0200313Y0100007D02*
X0196188Y0100007D01*
X0196188Y0101606D02*
X0200875Y0101606D01*
X0202474Y0103204D02*
X0196188Y0103204D01*
X0196188Y0104803D02*
X0202947Y0104803D01*
X0203960Y0103790D02*
X0203960Y0103790D01*
X0202881Y0106401D02*
X0196188Y0106401D01*
X0196188Y0108000D02*
X0202881Y0108000D01*
X0202881Y0109599D02*
X0196188Y0109599D01*
X0196188Y0111197D02*
X0203187Y0111197D01*
X0202881Y0112796D02*
X0196188Y0112796D01*
X0196188Y0114394D02*
X0202964Y0114394D01*
X0202881Y0115993D02*
X0196188Y0115993D01*
X0196188Y0117591D02*
X0203592Y0117591D01*
X0203113Y0119190D02*
X0196188Y0119190D01*
X0196188Y0120788D02*
X0199028Y0120788D01*
X0199184Y0122387D02*
X0196188Y0122387D01*
X0196188Y0123985D02*
X0207450Y0123985D01*
X0203283Y0125584D02*
X0196188Y0125584D01*
X0196188Y0127182D02*
X0202881Y0127182D01*
X0202881Y0128781D02*
X0196188Y0128781D01*
X0196188Y0130379D02*
X0203182Y0130379D01*
X0203352Y0131978D02*
X0204780Y0131978D01*
X0200954Y0131978D02*
X0196188Y0131978D01*
X0196188Y0133576D02*
X0200313Y0133576D01*
X0200313Y0135175D02*
X0196188Y0135175D01*
X0196188Y0136773D02*
X0208079Y0136773D01*
X0206735Y0138372D02*
X0196188Y0138372D01*
X0196188Y0139970D02*
X0206735Y0139970D01*
X0204455Y0141569D02*
X0196188Y0141569D01*
X0196188Y0143167D02*
X0202881Y0143167D01*
X0203960Y0142064D02*
X0203960Y0142064D01*
X0202881Y0144766D02*
X0196188Y0144766D01*
X0196188Y0146364D02*
X0202881Y0146364D01*
X0202881Y0147963D02*
X0196188Y0147963D01*
X0196188Y0149561D02*
X0203922Y0149561D01*
X0203960Y0149983D02*
X0203960Y0149983D01*
X0202881Y0151160D02*
X0196188Y0151160D01*
X0196188Y0152758D02*
X0202881Y0152758D01*
X0202881Y0154357D02*
X0196188Y0154357D01*
X0196188Y0155955D02*
X0203682Y0155955D01*
X0203023Y0157554D02*
X0196188Y0157554D01*
X0196199Y0159152D02*
X0202881Y0159152D01*
X0203128Y0160751D02*
X0195722Y0160751D01*
X0193925Y0162349D02*
X0202881Y0162349D01*
X0203756Y0163948D02*
X0192127Y0163948D01*
X0186777Y0162349D02*
X0132779Y0162349D01*
X0133847Y0161892D02*
X0127491Y0155536D01*
X0127491Y0151842D01*
X0137541Y0151842D01*
X0137541Y0150242D01*
X0127491Y0150242D01*
X0127491Y0146548D01*
X0133847Y0140192D01*
X0137541Y0140192D01*
X0137541Y0150242D01*
X0139141Y0150242D01*
X0139141Y0140192D01*
X0142835Y0140192D01*
X0149191Y0146548D01*
X0149191Y0150242D01*
X0139141Y0150242D01*
X0139141Y0151842D01*
X0137541Y0151842D01*
X0137541Y0161892D01*
X0133847Y0161892D01*
X0132706Y0160751D02*
X0132210Y0160751D01*
X0131107Y0159152D02*
X0122969Y0159152D01*
X0122904Y0159310D02*
X0122527Y0159687D01*
X0122527Y0161705D01*
X0119792Y0164440D01*
X0118393Y0164440D01*
X0118393Y0165988D01*
X0117579Y0166803D01*
X0111309Y0166803D01*
X0110703Y0166197D01*
X0110098Y0166803D01*
X0103828Y0166803D01*
X0103014Y0165988D01*
X0103014Y0158931D01*
X0103210Y0158734D01*
X0103210Y0153627D01*
X0102541Y0152958D01*
X0101995Y0151638D01*
X0101995Y0150210D01*
X0102541Y0148890D01*
X0103551Y0147880D01*
X0104871Y0147333D01*
X0106299Y0147333D01*
X0107619Y0147880D01*
X0108629Y0148890D01*
X0109176Y0150210D01*
X0109176Y0151638D01*
X0108629Y0152958D01*
X0107960Y0153627D01*
X0107960Y0158116D01*
X0110098Y0158116D01*
X0110703Y0158721D01*
X0111309Y0158116D01*
X0117579Y0158116D01*
X0117775Y0158312D01*
X0117765Y0158288D01*
X0117765Y0157182D01*
X0118188Y0156160D01*
X0118971Y0155377D01*
X0119993Y0154954D01*
X0121099Y0154954D01*
X0122121Y0155377D01*
X0122904Y0156160D01*
X0123327Y0157182D01*
X0123327Y0158288D01*
X0122904Y0159310D01*
X0122527Y0160751D02*
X0123843Y0160751D01*
X0123968Y0160625D02*
X0123633Y0160960D01*
X0123396Y0161371D01*
X0123273Y0161829D01*
X0123273Y0164145D01*
X0127547Y0164145D01*
X0127547Y0160266D01*
X0124837Y0160266D01*
X0124379Y0160388D01*
X0123968Y0160625D01*
X0123273Y0162349D02*
X0121883Y0162349D01*
X0123273Y0163948D02*
X0120284Y0163948D01*
X0118393Y0165546D02*
X0123273Y0165546D01*
X0123273Y0167145D02*
X0099299Y0167145D01*
X0099299Y0167143D02*
X0099299Y0175649D01*
X0107356Y0183707D01*
X0127673Y0183707D01*
X0128654Y0183300D01*
X0129761Y0183300D01*
X0130783Y0183724D01*
X0131565Y0184506D01*
X0131988Y0185528D01*
X0131988Y0186635D01*
X0131565Y0187657D01*
X0130783Y0188439D01*
X0129761Y0188862D01*
X0128654Y0188862D01*
X0127673Y0188456D01*
X0105389Y0188456D01*
X0095940Y0179007D01*
X0094549Y0177616D01*
X0094549Y0167143D01*
X0094143Y0166162D01*
X0094143Y0165056D01*
X0094566Y0164034D01*
X0095349Y0163251D01*
X0096371Y0162828D01*
X0097477Y0162828D01*
X0098499Y0163251D01*
X0099282Y0164034D01*
X0099705Y0165056D01*
X0099705Y0166162D01*
X0099299Y0167143D01*
X0099299Y0168743D02*
X0123909Y0168743D01*
X0123683Y0170342D02*
X0099299Y0170342D01*
X0099299Y0171940D02*
X0123683Y0171940D01*
X0123683Y0173539D02*
X0099299Y0173539D01*
X0099299Y0175137D02*
X0123683Y0175137D01*
X0125639Y0176736D02*
X0100386Y0176736D01*
X0101984Y0178334D02*
X0126189Y0178334D01*
X0130651Y0178334D02*
X0151623Y0178334D01*
X0152003Y0176736D02*
X0131201Y0176736D01*
X0132370Y0175137D02*
X0154116Y0175137D01*
X0152197Y0179933D02*
X0103583Y0179933D01*
X0105181Y0181532D02*
X0202094Y0181532D01*
X0202094Y0181251D02*
X0202616Y0180729D01*
X0202094Y0180207D01*
X0202094Y0178682D01*
X0203172Y0177604D01*
X0209835Y0177604D01*
X0210913Y0178682D01*
X0210913Y0180207D01*
X0209835Y0181285D01*
X0207266Y0181285D01*
X0205775Y0182776D01*
X0205775Y0184060D01*
X0205632Y0184203D01*
X0208550Y0184203D01*
X0209628Y0185281D01*
X0210913Y0186566D01*
X0210913Y0190659D01*
X0209835Y0191738D01*
X0208344Y0191738D01*
X0208344Y0191944D01*
X0207266Y0193022D01*
X0206169Y0193022D01*
X0209778Y0194827D01*
X0210378Y0195026D01*
X0210444Y0195159D01*
X0210577Y0195226D01*
X0210777Y0195825D01*
X0211059Y0196390D01*
X0211012Y0196531D01*
X0211059Y0196673D01*
X0210777Y0197237D01*
X0210577Y0197837D01*
X0210444Y0197903D01*
X0210378Y0198036D01*
X0209778Y0198236D01*
X0204076Y0201087D01*
X0202629Y0200605D01*
X0201947Y0199241D01*
X0202430Y0197795D01*
X0204957Y0196531D01*
X0202430Y0195268D01*
X0201947Y0193821D01*
X0202629Y0192457D01*
X0203576Y0192142D01*
X0203378Y0191944D01*
X0202094Y0190659D01*
X0202094Y0186566D01*
X0202870Y0185790D01*
X0203172Y0185488D01*
X0203172Y0185488D01*
X0203521Y0185139D01*
X0203172Y0185139D01*
X0202094Y0184060D01*
X0202094Y0181251D01*
X0202094Y0179933D02*
X0156612Y0179933D01*
X0166738Y0173539D02*
X0132370Y0173539D01*
X0132370Y0171940D02*
X0168336Y0171940D01*
X0169935Y0170342D02*
X0132370Y0170342D01*
X0128506Y0163948D02*
X0127547Y0163948D01*
X0127547Y0162349D02*
X0128506Y0162349D01*
X0128506Y0160751D02*
X0127547Y0160751D01*
X0129509Y0157554D02*
X0123327Y0157554D01*
X0122699Y0155955D02*
X0127910Y0155955D01*
X0127491Y0154357D02*
X0117647Y0154357D01*
X0117480Y0154469D02*
X0116752Y0154770D01*
X0115979Y0154924D01*
X0115585Y0154924D01*
X0115191Y0154924D01*
X0114419Y0154770D01*
X0113691Y0154469D01*
X0113035Y0154031D01*
X0112478Y0153474D01*
X0112041Y0152819D01*
X0111739Y0152091D01*
X0111585Y0151318D01*
X0111585Y0150924D01*
X0115585Y0150924D01*
X0115585Y0150924D01*
X0115585Y0154924D01*
X0115585Y0150924D01*
X0115585Y0150924D01*
X0111585Y0150924D01*
X0111585Y0150530D01*
X0111739Y0149757D01*
X0112041Y0149029D01*
X0112478Y0148374D01*
X0113035Y0147817D01*
X0113691Y0147379D01*
X0114419Y0147078D01*
X0115191Y0146924D01*
X0115585Y0146924D01*
X0115585Y0150924D01*
X0115585Y0150924D01*
X0119585Y0150924D01*
X0119585Y0151318D01*
X0119432Y0152091D01*
X0119130Y0152819D01*
X0118692Y0153474D01*
X0118135Y0154031D01*
X0117480Y0154469D01*
X0118392Y0155955D02*
X0107960Y0155955D01*
X0107960Y0154357D02*
X0113523Y0154357D01*
X0115585Y0154357D02*
X0115585Y0154357D01*
X0115585Y0152758D02*
X0115585Y0152758D01*
X0115585Y0151160D02*
X0115585Y0151160D01*
X0115585Y0150924D02*
X0115585Y0150924D01*
X0115585Y0146924D01*
X0115979Y0146924D01*
X0116752Y0147078D01*
X0117480Y0147379D01*
X0118135Y0147817D01*
X0118692Y0148374D01*
X0119130Y0149029D01*
X0119432Y0149757D01*
X0119585Y0150530D01*
X0119585Y0150924D01*
X0115585Y0150924D01*
X0115585Y0149561D02*
X0115585Y0149561D01*
X0115585Y0147963D02*
X0115585Y0147963D01*
X0112890Y0147963D02*
X0107702Y0147963D01*
X0108907Y0149561D02*
X0111820Y0149561D01*
X0111585Y0151160D02*
X0109176Y0151160D01*
X0108712Y0152758D02*
X0112016Y0152758D01*
X0107960Y0157554D02*
X0117765Y0157554D01*
X0119155Y0152758D02*
X0127491Y0152758D01*
X0127491Y0149561D02*
X0119350Y0149561D01*
X0119585Y0151160D02*
X0137541Y0151160D01*
X0137541Y0152758D02*
X0139141Y0152758D01*
X0139141Y0151842D02*
X0139141Y0161892D01*
X0142835Y0161892D01*
X0149191Y0155536D01*
X0149191Y0151842D01*
X0139141Y0151842D01*
X0139141Y0151160D02*
X0149273Y0151160D01*
X0149273Y0152758D02*
X0149191Y0152758D01*
X0149191Y0154357D02*
X0149273Y0154357D01*
X0148772Y0155955D02*
X0150068Y0155955D01*
X0147174Y0157554D02*
X0170088Y0157554D01*
X0169122Y0155955D02*
X0157166Y0155955D01*
X0157960Y0149561D02*
X0167929Y0149561D01*
X0168357Y0147963D02*
X0157678Y0147963D01*
X0157960Y0146364D02*
X0168986Y0146364D01*
X0169909Y0144766D02*
X0157960Y0144766D01*
X0157960Y0143167D02*
X0171451Y0143167D01*
X0173868Y0141569D02*
X0157960Y0141569D01*
X0151242Y0139970D02*
X0097566Y0139970D01*
X0097566Y0138372D02*
X0151242Y0138372D01*
X0151242Y0136773D02*
X0097566Y0136773D01*
X0096339Y0135175D02*
X0151242Y0135175D01*
X0151242Y0133576D02*
X0096047Y0133576D01*
X0096047Y0131978D02*
X0151242Y0131978D01*
X0149273Y0141569D02*
X0144212Y0141569D01*
X0145811Y0143167D02*
X0149273Y0143167D01*
X0149273Y0144766D02*
X0147409Y0144766D01*
X0149008Y0146364D02*
X0149273Y0146364D01*
X0149191Y0147963D02*
X0149555Y0147963D01*
X0149273Y0149561D02*
X0149191Y0149561D01*
X0145575Y0159152D02*
X0171686Y0159152D01*
X0174276Y0160751D02*
X0143977Y0160751D01*
X0139141Y0160751D02*
X0137541Y0160751D01*
X0137541Y0159152D02*
X0139141Y0159152D01*
X0139141Y0157554D02*
X0137541Y0157554D01*
X0137541Y0155955D02*
X0139141Y0155955D01*
X0139141Y0154357D02*
X0137541Y0154357D01*
X0137541Y0149561D02*
X0139141Y0149561D01*
X0139141Y0147963D02*
X0137541Y0147963D01*
X0137541Y0146364D02*
X0139141Y0146364D01*
X0139141Y0144766D02*
X0137541Y0144766D01*
X0137541Y0143167D02*
X0139141Y0143167D01*
X0139141Y0141569D02*
X0137541Y0141569D01*
X0132470Y0141569D02*
X0097566Y0141569D01*
X0097566Y0143167D02*
X0130872Y0143167D01*
X0129273Y0144766D02*
X0097566Y0144766D01*
X0097566Y0146364D02*
X0127675Y0146364D01*
X0127491Y0147963D02*
X0118281Y0147963D01*
X0103469Y0147963D02*
X0097702Y0147963D01*
X0098907Y0149561D02*
X0102263Y0149561D01*
X0101995Y0151160D02*
X0099176Y0151160D01*
X0098712Y0152758D02*
X0102459Y0152758D01*
X0103210Y0154357D02*
X0096680Y0154357D01*
X0094491Y0154357D02*
X0077645Y0154357D01*
X0077645Y0155955D02*
X0103210Y0155955D01*
X0103210Y0157554D02*
X0078482Y0157554D01*
X0080080Y0159152D02*
X0103014Y0159152D01*
X0103014Y0160751D02*
X0081679Y0160751D01*
X0077645Y0152758D02*
X0092459Y0152758D01*
X0091995Y0151160D02*
X0077645Y0151160D01*
X0077645Y0149561D02*
X0092263Y0149561D01*
X0093469Y0147963D02*
X0077645Y0147963D01*
X0077645Y0146364D02*
X0093604Y0146364D01*
X0093604Y0144766D02*
X0077645Y0144766D01*
X0077645Y0143167D02*
X0093604Y0143167D01*
X0093604Y0141569D02*
X0077645Y0141569D01*
X0077645Y0139970D02*
X0079199Y0139970D01*
X0077830Y0138372D02*
X0077645Y0138372D01*
X0084176Y0139970D02*
X0089199Y0139970D01*
X0087830Y0138372D02*
X0085545Y0138372D01*
X0086047Y0136773D02*
X0087329Y0136773D01*
X0087329Y0135175D02*
X0086047Y0135175D01*
X0086047Y0133576D02*
X0087329Y0133576D01*
X0087329Y0131978D02*
X0086047Y0131978D01*
X0086047Y0130379D02*
X0087329Y0130379D01*
X0087622Y0128781D02*
X0085753Y0128781D01*
X0085546Y0127182D02*
X0088698Y0127182D01*
X0087955Y0125584D02*
X0086110Y0125584D01*
X0077622Y0128781D02*
X0077464Y0128781D01*
X0088741Y0162349D02*
X0103014Y0162349D01*
X0103014Y0163948D02*
X0099196Y0163948D01*
X0099705Y0165546D02*
X0103014Y0165546D01*
X0094652Y0163948D02*
X0092375Y0163948D01*
X0093677Y0165546D02*
X0094143Y0165546D01*
X0094549Y0167145D02*
X0093719Y0167145D01*
X0094549Y0168743D02*
X0092604Y0168743D01*
X0094549Y0170342D02*
X0089253Y0170342D01*
X0089456Y0171940D02*
X0094549Y0171940D01*
X0094549Y0173539D02*
X0089456Y0173539D01*
X0089456Y0175137D02*
X0094549Y0175137D01*
X0094549Y0176736D02*
X0089456Y0176736D01*
X0089456Y0178334D02*
X0095267Y0178334D01*
X0096866Y0179933D02*
X0089456Y0179933D01*
X0089456Y0181532D02*
X0098464Y0181532D01*
X0100063Y0183130D02*
X0089456Y0183130D01*
X0089456Y0184729D02*
X0101661Y0184729D01*
X0103260Y0186327D02*
X0093478Y0186327D01*
X0093799Y0187926D02*
X0104858Y0187926D01*
X0106780Y0183130D02*
X0202094Y0183130D01*
X0202762Y0184729D02*
X0131657Y0184729D01*
X0131988Y0186327D02*
X0202333Y0186327D01*
X0202094Y0187926D02*
X0131296Y0187926D01*
X0129812Y0197486D02*
X0136083Y0197486D01*
X0136897Y0198301D01*
X0136897Y0202977D01*
X0139280Y0205360D01*
X0140641Y0205360D01*
X0141018Y0204984D01*
X0142040Y0204560D01*
X0143146Y0204560D01*
X0144169Y0204984D01*
X0144545Y0205360D01*
X0155946Y0205360D01*
X0159095Y0202210D01*
X0180422Y0202210D01*
X0181582Y0203371D01*
X0183433Y0205221D01*
X0183433Y0207562D01*
X0183921Y0207764D01*
X0185147Y0208990D01*
X0185810Y0210592D01*
X0185810Y0218263D01*
X0185147Y0219866D01*
X0183921Y0221092D01*
X0182319Y0221755D01*
X0180584Y0221755D01*
X0178982Y0221092D01*
X0177756Y0219866D01*
X0177092Y0218263D01*
X0177092Y0210592D01*
X0177756Y0208990D01*
X0178982Y0207764D01*
X0179470Y0207562D01*
X0179470Y0206863D01*
X0178780Y0206173D01*
X0160737Y0206173D01*
X0158747Y0208162D01*
X0157587Y0209322D01*
X0144545Y0209322D01*
X0144169Y0209699D01*
X0143146Y0210122D01*
X0142040Y0210122D01*
X0141018Y0209699D01*
X0140641Y0209322D01*
X0137639Y0209322D01*
X0134489Y0206173D01*
X0129812Y0206173D01*
X0129207Y0205568D01*
X0128602Y0206173D01*
X0126188Y0206173D01*
X0126188Y0210872D01*
X0167092Y0210872D01*
X0167092Y0210592D01*
X0167756Y0208990D01*
X0168982Y0207764D01*
X0170584Y0207100D01*
X0172319Y0207100D01*
X0173921Y0207764D01*
X0175147Y0208990D01*
X0175810Y0210592D01*
X0175810Y0218263D01*
X0175147Y0219866D01*
X0173921Y0221092D01*
X0172319Y0221755D01*
X0170584Y0221755D01*
X0168982Y0221092D01*
X0167756Y0219866D01*
X0167092Y0218263D01*
X0167092Y0214834D01*
X0136637Y0214834D01*
X0136677Y0214850D01*
X0137903Y0216077D01*
X0138566Y0217679D01*
X0138566Y0225350D01*
X0137903Y0226952D01*
X0136677Y0228178D01*
X0135074Y0228842D01*
X0133340Y0228842D01*
X0131738Y0228178D01*
X0130512Y0226952D01*
X0129848Y0225350D01*
X0129848Y0217679D01*
X0130512Y0216077D01*
X0131738Y0214850D01*
X0131778Y0214834D01*
X0126637Y0214834D01*
X0126677Y0214850D01*
X0127903Y0216077D01*
X0128566Y0217679D01*
X0128566Y0225350D01*
X0127903Y0226952D01*
X0126677Y0228178D01*
X0125074Y0228842D01*
X0123340Y0228842D01*
X0121738Y0228178D01*
X0120512Y0226952D01*
X0119848Y0225350D01*
X0119848Y0217679D01*
X0120512Y0216077D01*
X0121738Y0214850D01*
X0122226Y0214648D01*
X0122226Y0206067D01*
X0121518Y0205358D01*
X0121518Y0198301D01*
X0122332Y0197486D01*
X0128602Y0197486D01*
X0129207Y0198091D01*
X0129812Y0197486D01*
X0129782Y0197517D02*
X0128633Y0197517D01*
X0122302Y0197517D02*
X0086307Y0197517D01*
X0086307Y0199115D02*
X0121518Y0199115D01*
X0121518Y0200714D02*
X0086227Y0200714D01*
X0081779Y0202312D02*
X0121518Y0202312D01*
X0121518Y0203911D02*
X0081779Y0203911D01*
X0081779Y0205509D02*
X0121669Y0205509D01*
X0122226Y0207108D02*
X0081779Y0207108D01*
X0081779Y0208706D02*
X0122226Y0208706D01*
X0122226Y0210305D02*
X0081779Y0210305D01*
X0081779Y0211903D02*
X0122226Y0211903D01*
X0122226Y0213502D02*
X0081779Y0213502D01*
X0085109Y0215100D02*
X0121488Y0215100D01*
X0120254Y0216699D02*
X0086777Y0216699D01*
X0087346Y0218297D02*
X0119848Y0218297D01*
X0119848Y0219896D02*
X0087346Y0219896D01*
X0087346Y0221494D02*
X0119848Y0221494D01*
X0119848Y0223093D02*
X0087346Y0223093D01*
X0087346Y0224691D02*
X0119848Y0224691D01*
X0120238Y0226290D02*
X0087120Y0226290D01*
X0086140Y0227888D02*
X0121448Y0227888D01*
X0126967Y0227888D02*
X0131448Y0227888D01*
X0130238Y0226290D02*
X0128177Y0226290D01*
X0128566Y0224691D02*
X0129848Y0224691D01*
X0129848Y0223093D02*
X0128566Y0223093D01*
X0128566Y0221494D02*
X0129848Y0221494D01*
X0129848Y0219896D02*
X0128566Y0219896D01*
X0128566Y0218297D02*
X0129848Y0218297D01*
X0130254Y0216699D02*
X0128160Y0216699D01*
X0126926Y0215100D02*
X0131488Y0215100D01*
X0136926Y0215100D02*
X0167092Y0215100D01*
X0167092Y0216699D02*
X0138160Y0216699D01*
X0138566Y0218297D02*
X0167106Y0218297D01*
X0167786Y0219896D02*
X0138566Y0219896D01*
X0138566Y0221494D02*
X0169954Y0221494D01*
X0172949Y0221494D02*
X0179954Y0221494D01*
X0177786Y0219896D02*
X0175117Y0219896D01*
X0175796Y0218297D02*
X0177106Y0218297D01*
X0177092Y0216699D02*
X0175810Y0216699D01*
X0175810Y0215100D02*
X0177092Y0215100D01*
X0177092Y0213502D02*
X0175810Y0213502D01*
X0175810Y0211903D02*
X0177092Y0211903D01*
X0177211Y0210305D02*
X0175691Y0210305D01*
X0174863Y0208706D02*
X0178040Y0208706D01*
X0179470Y0207108D02*
X0172336Y0207108D01*
X0170566Y0207108D02*
X0159802Y0207108D01*
X0158203Y0208706D02*
X0168040Y0208706D01*
X0167211Y0210305D02*
X0126188Y0210305D01*
X0126188Y0208706D02*
X0137023Y0208706D01*
X0135424Y0207108D02*
X0126188Y0207108D01*
X0136897Y0202312D02*
X0158994Y0202312D01*
X0157395Y0203911D02*
X0137830Y0203911D01*
X0136897Y0200714D02*
X0202955Y0200714D01*
X0201989Y0199115D02*
X0136897Y0199115D01*
X0136113Y0197517D02*
X0202986Y0197517D01*
X0203730Y0195918D02*
X0086307Y0195918D01*
X0086307Y0194320D02*
X0202114Y0194320D01*
X0202497Y0192721D02*
X0081779Y0192721D01*
X0075455Y0192721D02*
X0069968Y0192721D01*
X0070768Y0194320D02*
X0070927Y0194320D01*
X0070927Y0195918D02*
X0070510Y0195918D01*
X0070927Y0197517D02*
X0068558Y0197517D01*
X0067416Y0197517D02*
X0065047Y0197517D01*
X0065047Y0199115D02*
X0070927Y0199115D01*
X0071007Y0200714D02*
X0064967Y0200714D01*
X0060519Y0202312D02*
X0075455Y0202312D01*
X0075455Y0203911D02*
X0060519Y0203911D01*
X0060519Y0205509D02*
X0075455Y0205509D01*
X0075455Y0207108D02*
X0060519Y0207108D01*
X0060519Y0208706D02*
X0075455Y0208706D01*
X0075455Y0210305D02*
X0060519Y0210305D01*
X0060519Y0211903D02*
X0075455Y0211903D01*
X0075455Y0213502D02*
X0060519Y0213502D01*
X0060519Y0215100D02*
X0060865Y0215100D01*
X0065109Y0215100D02*
X0070865Y0215100D01*
X0069197Y0216699D02*
X0066777Y0216699D01*
X0067346Y0218297D02*
X0068628Y0218297D01*
X0068628Y0219896D02*
X0067346Y0219896D01*
X0067346Y0221494D02*
X0068628Y0221494D01*
X0068628Y0223093D02*
X0067346Y0223093D01*
X0067346Y0224691D02*
X0068628Y0224691D01*
X0068854Y0226290D02*
X0067120Y0226290D01*
X0066140Y0227888D02*
X0069834Y0227888D01*
X0076140Y0227888D02*
X0079834Y0227888D01*
X0078854Y0226290D02*
X0077120Y0226290D01*
X0077346Y0224691D02*
X0078628Y0224691D01*
X0078628Y0223093D02*
X0077346Y0223093D01*
X0077346Y0221494D02*
X0078628Y0221494D01*
X0078173Y0219896D02*
X0077801Y0219896D01*
X0075455Y0215100D02*
X0075109Y0215100D01*
X0059834Y0227888D02*
X0056140Y0227888D01*
X0057120Y0226290D02*
X0058854Y0226290D01*
X0058628Y0224691D02*
X0057346Y0224691D01*
X0057346Y0223093D02*
X0058628Y0223093D01*
X0058628Y0221494D02*
X0057346Y0221494D01*
X0057801Y0219896D02*
X0058173Y0219896D01*
X0054195Y0213502D02*
X0011110Y0213502D01*
X0011110Y0215100D02*
X0050865Y0215100D01*
X0049197Y0216699D02*
X0011110Y0216699D01*
X0011110Y0218297D02*
X0048628Y0218297D01*
X0048628Y0219896D02*
X0011110Y0219896D01*
X0011110Y0221494D02*
X0048628Y0221494D01*
X0048628Y0223093D02*
X0011110Y0223093D01*
X0011110Y0224691D02*
X0048628Y0224691D01*
X0048854Y0226290D02*
X0011110Y0226290D01*
X0011110Y0227888D02*
X0049834Y0227888D01*
X0054195Y0211903D02*
X0011110Y0211903D01*
X0011110Y0210305D02*
X0054195Y0210305D01*
X0054195Y0208706D02*
X0011110Y0208706D01*
X0011110Y0207108D02*
X0054195Y0207108D01*
X0054195Y0205509D02*
X0011110Y0205509D01*
X0011110Y0203911D02*
X0054195Y0203911D01*
X0054195Y0202312D02*
X0011110Y0202312D01*
X0011110Y0200714D02*
X0049747Y0200714D01*
X0049667Y0199115D02*
X0011110Y0199115D01*
X0011110Y0197517D02*
X0049667Y0197517D01*
X0049667Y0195918D02*
X0011110Y0195918D01*
X0011110Y0194320D02*
X0049667Y0194320D01*
X0046652Y0191123D02*
X0011110Y0191123D01*
X0011110Y0192721D02*
X0054195Y0192721D01*
X0060519Y0192721D02*
X0066006Y0192721D01*
X0065206Y0194320D02*
X0065047Y0194320D01*
X0065047Y0195918D02*
X0065463Y0195918D01*
X0046518Y0184729D02*
X0011110Y0184729D01*
X0011110Y0186327D02*
X0042496Y0186327D01*
X0042174Y0187926D02*
X0011110Y0187926D01*
X0011110Y0189524D02*
X0042890Y0189524D01*
X0046518Y0183130D02*
X0023049Y0183130D01*
X0024511Y0181532D02*
X0046518Y0181532D01*
X0046518Y0179933D02*
X0024511Y0179933D01*
X0020238Y0181532D02*
X0019279Y0181532D01*
X0019279Y0183130D02*
X0020238Y0183130D01*
X0016468Y0183130D02*
X0011110Y0183130D01*
X0011110Y0181532D02*
X0015006Y0181532D01*
X0015006Y0179933D02*
X0011110Y0179933D01*
X0011110Y0229487D02*
X0215809Y0229487D01*
X0215809Y0231085D02*
X0011110Y0231085D01*
X0011110Y0232684D02*
X0215809Y0232684D01*
X0215809Y0234282D02*
X0011110Y0234282D01*
X0089322Y0191123D02*
X0202557Y0191123D01*
X0202094Y0189524D02*
X0093084Y0189524D01*
X0089662Y0163948D02*
X0089456Y0163948D01*
X0138566Y0223093D02*
X0199525Y0223093D01*
X0199525Y0222200D02*
X0200301Y0221424D01*
X0200603Y0221122D01*
X0200603Y0221122D01*
X0201112Y0220614D01*
X0201888Y0219838D01*
X0206019Y0219838D01*
X0205947Y0219766D01*
X0205947Y0216956D01*
X0207025Y0215878D01*
X0207410Y0215878D01*
X0207232Y0215700D01*
X0207232Y0214209D01*
X0200603Y0214209D01*
X0199525Y0213131D01*
X0199525Y0211606D01*
X0200603Y0210528D01*
X0203172Y0207959D01*
X0204697Y0207959D01*
X0205775Y0209038D01*
X0205775Y0210528D01*
X0207232Y0210528D01*
X0207232Y0209038D01*
X0208310Y0207959D01*
X0209835Y0207959D01*
X0210913Y0209038D01*
X0210913Y0215700D01*
X0210285Y0216328D01*
X0210913Y0216956D01*
X0210913Y0219766D01*
X0209835Y0220844D01*
X0209556Y0220844D01*
X0209628Y0220916D01*
X0210913Y0222200D01*
X0210913Y0226294D01*
X0210114Y0227093D01*
X0209628Y0227578D01*
X0209349Y0227857D01*
X0208550Y0228656D01*
X0201888Y0228656D01*
X0200810Y0227578D01*
X0199525Y0226294D01*
X0199525Y0222200D01*
X0200231Y0221494D02*
X0182949Y0221494D01*
X0185117Y0219896D02*
X0201830Y0219896D01*
X0205947Y0218297D02*
X0185796Y0218297D01*
X0185810Y0216699D02*
X0206205Y0216699D01*
X0207232Y0215100D02*
X0185810Y0215100D01*
X0185810Y0213502D02*
X0199896Y0213502D01*
X0199525Y0211903D02*
X0185810Y0211903D01*
X0185691Y0210305D02*
X0200827Y0210305D01*
X0202425Y0208706D02*
X0184863Y0208706D01*
X0183433Y0207108D02*
X0215809Y0207108D01*
X0215809Y0208706D02*
X0210581Y0208706D01*
X0210913Y0210305D02*
X0215809Y0210305D01*
X0215809Y0211903D02*
X0210913Y0211903D01*
X0210913Y0213502D02*
X0215809Y0213502D01*
X0215809Y0215100D02*
X0210913Y0215100D01*
X0210655Y0216699D02*
X0215809Y0216699D01*
X0215809Y0218297D02*
X0210913Y0218297D01*
X0210783Y0219896D02*
X0215809Y0219896D01*
X0215809Y0221494D02*
X0210207Y0221494D01*
X0210913Y0223093D02*
X0215809Y0223093D01*
X0215809Y0224691D02*
X0210913Y0224691D01*
X0210913Y0226290D02*
X0215809Y0226290D01*
X0215809Y0227888D02*
X0209318Y0227888D01*
X0209628Y0227578D02*
X0209628Y0227578D01*
X0201120Y0227888D02*
X0136967Y0227888D01*
X0138177Y0226290D02*
X0199525Y0226290D01*
X0199525Y0224691D02*
X0138566Y0224691D01*
X0180523Y0202312D02*
X0215809Y0202312D01*
X0215809Y0200714D02*
X0204823Y0200714D01*
X0208020Y0199115D02*
X0215809Y0199115D01*
X0215809Y0197517D02*
X0210684Y0197517D01*
X0210823Y0195918D02*
X0215809Y0195918D01*
X0215809Y0194320D02*
X0208764Y0194320D01*
X0207567Y0192721D02*
X0215809Y0192721D01*
X0215809Y0191123D02*
X0210450Y0191123D01*
X0210913Y0189524D02*
X0215809Y0189524D01*
X0215809Y0187926D02*
X0210913Y0187926D01*
X0210674Y0186327D02*
X0215809Y0186327D01*
X0215809Y0184729D02*
X0209076Y0184729D01*
X0205775Y0183130D02*
X0215809Y0183130D01*
X0215809Y0181532D02*
X0207020Y0181532D01*
X0210913Y0179933D02*
X0215809Y0179933D01*
X0215809Y0178334D02*
X0210565Y0178334D01*
X0215809Y0176736D02*
X0170258Y0176736D01*
X0171856Y0175137D02*
X0215809Y0175137D01*
X0215809Y0173539D02*
X0181341Y0173539D01*
X0168659Y0178334D02*
X0202442Y0178334D01*
X0203960Y0164152D02*
X0203960Y0164152D01*
X0215809Y0203911D02*
X0182122Y0203911D01*
X0183433Y0205509D02*
X0215809Y0205509D01*
X0207563Y0208706D02*
X0205444Y0208706D01*
X0205775Y0210305D02*
X0207232Y0210305D01*
D26*
X0136294Y0072696D02*
X0163853Y0045136D01*
X0163853Y0023089D01*
X0158341Y0017577D01*
X0028420Y0017577D01*
X0025270Y0020727D01*
X0022908Y0020727D01*
X0019759Y0023877D01*
X0019759Y0027026D01*
X0022908Y0030176D01*
X0029207Y0030176D01*
X0034050Y0025333D01*
X0034522Y0025333D01*
X0033144Y0020727D02*
X0156766Y0020727D01*
X0159129Y0023089D01*
X0159129Y0041987D01*
X0131570Y0069546D01*
X0133932Y0071121D02*
X0161491Y0043562D01*
X0161491Y0023089D01*
X0157554Y0019152D01*
X0031176Y0019152D01*
X0029995Y0020333D01*
X0033144Y0020727D02*
X0028538Y0025333D01*
X0024522Y0025333D01*
X0039444Y0030412D02*
X0039444Y0038050D01*
X0037869Y0039625D01*
X0032357Y0039625D01*
X0029995Y0041987D01*
X0029995Y0072696D01*
X0027633Y0075058D01*
X0027633Y0099467D01*
X0041018Y0112853D01*
X0045152Y0112853D01*
X0045152Y0109703D02*
X0041018Y0109703D01*
X0029207Y0097892D01*
X0029207Y0075845D01*
X0031570Y0073483D01*
X0031570Y0045136D01*
X0035507Y0041199D01*
X0039444Y0041199D01*
X0041018Y0039625D01*
X0048105Y0039625D01*
X0049680Y0038050D01*
X0049680Y0030176D01*
X0054522Y0025333D01*
X0059129Y0030727D02*
X0059129Y0038837D01*
X0058341Y0039625D01*
X0051255Y0039625D01*
X0049680Y0041199D01*
X0041806Y0041199D01*
X0040231Y0042774D01*
X0037081Y0042774D01*
X0033144Y0046711D01*
X0033144Y0074270D01*
X0030782Y0076633D01*
X0030782Y0096318D01*
X0041018Y0106554D01*
X0045152Y0106554D01*
X0045152Y0103404D02*
X0041018Y0103404D01*
X0032357Y0094743D01*
X0032357Y0077420D01*
X0034719Y0075058D01*
X0034719Y0048286D01*
X0038656Y0044349D01*
X0041018Y0044349D01*
X0042593Y0042774D01*
X0050467Y0042774D01*
X0052042Y0041199D01*
X0059129Y0041199D01*
X0060703Y0039625D01*
X0067003Y0039625D01*
X0069365Y0037262D01*
X0069365Y0030491D01*
X0074522Y0025333D01*
X0079601Y0030255D02*
X0079601Y0036475D01*
X0076451Y0039625D01*
X0069365Y0039625D01*
X0067790Y0041199D01*
X0061491Y0041199D01*
X0059916Y0042774D01*
X0052829Y0042774D01*
X0051255Y0044349D01*
X0043381Y0044349D01*
X0041806Y0045924D01*
X0041806Y0052223D01*
X0036294Y0057735D01*
X0036294Y0075845D01*
X0033932Y0078207D01*
X0033932Y0093955D01*
X0040231Y0100255D01*
X0045152Y0100255D01*
X0045152Y0097105D02*
X0041018Y0097105D01*
X0035507Y0091593D01*
X0035507Y0079782D01*
X0037869Y0077420D01*
X0037869Y0061672D01*
X0040231Y0059310D01*
X0040231Y0056160D01*
X0042593Y0053798D01*
X0045349Y0053798D01*
X0045743Y0053404D01*
X0043381Y0057735D02*
X0043381Y0058522D01*
X0039444Y0062459D01*
X0039444Y0078207D01*
X0037081Y0080570D01*
X0037081Y0090806D01*
X0040231Y0093955D01*
X0045152Y0093955D01*
X0045152Y0090806D02*
X0041018Y0090806D01*
X0038656Y0088444D01*
X0038656Y0081357D01*
X0041018Y0078995D01*
X0041018Y0063247D01*
X0042987Y0061278D01*
X0047318Y0061278D01*
X0044168Y0064822D02*
X0044168Y0078207D01*
X0040231Y0082144D01*
X0040231Y0086869D01*
X0041018Y0087656D01*
X0045152Y0087656D01*
X0045152Y0084507D02*
X0047318Y0082341D01*
X0047318Y0068365D01*
X0052239Y0069349D02*
X0060703Y0061672D01*
X0068971Y0061672D01*
X0094522Y0035333D01*
X0092987Y0039625D02*
X0100231Y0039625D01*
X0104522Y0035333D01*
X0103223Y0039625D02*
X0101648Y0041199D01*
X0093774Y0041199D01*
X0070152Y0064822D01*
X0063066Y0064822D01*
X0058538Y0069349D01*
X0058538Y0077420D01*
X0055388Y0077420D02*
X0055388Y0069349D01*
X0061491Y0063247D01*
X0069365Y0063247D01*
X0092987Y0039625D01*
X0094562Y0042774D02*
X0102436Y0042774D01*
X0104010Y0041199D01*
X0111097Y0041199D01*
X0112672Y0039625D01*
X0120231Y0039625D01*
X0124522Y0035333D01*
X0122908Y0039625D02*
X0121333Y0041199D01*
X0113459Y0041199D01*
X0111885Y0042774D01*
X0104798Y0042774D01*
X0103223Y0044349D01*
X0095349Y0044349D01*
X0071136Y0068562D01*
X0071136Y0077420D01*
X0074286Y0077420D02*
X0074286Y0067774D01*
X0096136Y0045924D01*
X0104010Y0045924D01*
X0105585Y0044349D01*
X0112672Y0044349D01*
X0114247Y0042774D01*
X0122121Y0042774D01*
X0123696Y0041199D01*
X0130782Y0041199D01*
X0132357Y0039625D01*
X0140231Y0039625D01*
X0144522Y0035333D01*
X0142593Y0039625D02*
X0141018Y0041199D01*
X0133144Y0041199D01*
X0131570Y0042774D01*
X0124483Y0042774D01*
X0122908Y0044349D01*
X0115034Y0044349D01*
X0113459Y0045924D01*
X0106373Y0045924D01*
X0104798Y0047499D01*
X0096924Y0047499D01*
X0077436Y0066987D01*
X0077436Y0077420D01*
X0070940Y0066396D02*
X0094562Y0042774D01*
X0103223Y0039625D02*
X0110231Y0039625D01*
X0114522Y0035333D01*
X0122908Y0039625D02*
X0130231Y0039625D01*
X0134522Y0035333D01*
X0142593Y0039625D02*
X0150231Y0039625D01*
X0154522Y0035333D01*
X0084522Y0025333D02*
X0079601Y0030255D01*
X0064522Y0025333D02*
X0059129Y0030727D01*
X0044522Y0025333D02*
X0039444Y0030412D01*
X0063853Y0066396D02*
X0070940Y0066396D01*
X0063853Y0066396D02*
X0061688Y0068562D01*
X0061688Y0077420D01*
X0052239Y0077420D02*
X0052239Y0069349D01*
D27*
X0044955Y0123877D03*
M02*
