%
M48
M72
T01C0.01181
T02C0.02400
T03C0.03600
T04C0.03937
T05C0.07900
%
T01
X13459Y14428
X29995Y20333
X20546Y44349
X43381Y57735
X45743Y53404
X47318Y61278
X44168Y64822
X47318Y68365
X64640Y71121
X68577Y72696
X81963Y71908
X88262Y74270
X99286Y86081
X109522Y103404
X104798Y106554
X115034Y99467
X119759Y96318
X125270Y92381
X127633Y88444
X123696Y112853
X100073Y120727
X86688Y140412
X70349Y159310
X67987Y155176
X67987Y142774
X67987Y132144
X55728Y137443
X55388Y145924
X48179Y152386
X44912Y145584
X44490Y137068
X36849Y150312
X31963Y149861
X31963Y143955
X50861Y160491
X44955Y166396
X30192Y177026
X27829Y169940
X40822Y190609
X44955Y187656
X46727Y199467
X50861Y206554
X50861Y211278
X63853Y211278
X63853Y206554
X67987Y199467
X67987Y194743
X72121Y206554
X72121Y211278
X85113Y211278
X85113Y206554
X89247Y199467
X99089Y196908
X95152Y190609
X91018Y187656
X105782Y177026
X106963Y169940
X96924Y165609
X91018Y166396
X120546Y157735
X128420Y176633
X129207Y186081
X142593Y207341
X154404Y178207
X76908Y110489
X76091Y101846
X76850Y92970
X68674Y92561
X67331Y100269
X58396Y101671
X60265Y92911
X59856Y110839
X66922Y110722
X31570Y108916
X20546Y96318
X18184Y105766
X16609Y112853
X15822Y86869
X22121Y78207
X64640Y53798
X127633Y57735
X139444Y49861
X159129Y13444
X31373Y191199
X32554Y199467
T02
X36058Y159585
X26058Y159585
X16058Y159585
X95585Y150924
X105585Y150924
X115585Y150924
T03
X114522Y35333
X114522Y25333
X104522Y25333
X104522Y35333
X94522Y35333
X94522Y25333
X84522Y25333
X84522Y35333
X74522Y35333
X74522Y25333
X64522Y25333
X64522Y35333
X54522Y35333
X54522Y25333
X44522Y25333
X44522Y35333
X34522Y35333
X34522Y25333
X24522Y25333
X24522Y35333
X124522Y35333
X124522Y25333
X134522Y25333
X134522Y35333
X144522Y35333
X144522Y25333
X154522Y25333
X154522Y35333
T04
X163814Y91593
X173814Y91593
X183814Y91593
X193814Y91593
X91688Y133325
X81688Y133325
X44955Y123877
X21333Y67459
X21333Y57459
X52987Y221908
X62987Y221908
X72987Y221908
X82987Y221908
X124207Y221514
X134207Y221514
X171451Y214428
X181451Y214428
T05
X178341Y151042
X138341Y151042
M30
